<?xml version="1.0" encoding="UTF-8" standalone="no"?><!DOCTYPE svg PUBLIC "-//W3C//DTD SVG 1.1//EN" "http://www.w3.org/Graphics/SVG/1.1/DTD/svg11.dtd"><svg width="100%" height="100%" viewBox="0 0 542 132" version="1.1" xmlns="http://www.w3.org/2000/svg" xmlns:xlink="http://www.w3.org/1999/xlink" xml:space="preserve" xmlns:serif="http://www.serif.com/" style="fill-rule:evenodd;clip-rule:evenodd;stroke-linejoin:round;stroke-miterlimit:2;"><path d="M118.606,101.227c0,0 28.773,-6.614 40.151,-6.647c6.91,-0.02 16.817,0.519 21.173,1.663c7.113,1.867 12.065,4.462 12.065,4.462c0,0 -5.758,2.542 -17.168,4.136c-5.056,0.706 -14.969,1.262 -20.053,1.236c-15.57,-0.078 -36.169,-4.85 -36.169,-4.85Z" style="fill:#2e4844;"/><path d="M0,98.184c0,0 13.868,-9.941 37.5,-9.471c23.632,0.47 33.729,4.696 46.723,9.549c12.993,4.853 47.553,17.018 68.536,15.672c20.982,-1.345 41.529,-6.237 41.529,-6.237c0,0 -29.23,12.964 -49.043,12.23c-19.813,-0.734 -41.533,-3.709 -59.317,-10.029c-17.098,-6.076 -30.976,-11.419 -49.874,-12.667c-11.645,-0.769 -36.053,0.953 -36.053,0.953Z" style="fill:#2e4844;"/><path d="M17.279,83.166l0,-39.259l81.635,-36.813l0,-7.094l-87.628,39.382l0,45.497l5.993,-1.712Z" style="fill:#2e4844;"/><path d="M180.549,83.166l0,-39.259l-81.635,-36.813l0,-7.094l87.628,39.382l0,45.497l-5.993,-1.712Z" style="fill:#2e4844;"/><path d="M63.46,75.092l0,9.439c0,0 -8.837,-1.678 -13.827,-2.363c-4.99,-0.685 -12.132,-0.715 -12.132,-0.715l0,-21.59l53.52,-22.214l61.739,18.884l0,10.861l-6.164,-0.94l0,-5.831l-56.093,-15.884l0,21.774l-27.042,8.578Z" style="fill:#2e4844;"/><path d="M0,106.078c0,0 27.043,-5.972 55.221,1.659c28.179,7.632 42.055,14.016 58.322,17.196c16.266,3.18 23.727,3.302 33.389,2.079c9.662,-1.223 18.835,-3.302 18.835,-3.302c0,0 -21.305,7.681 -34.881,7.681c-13.576,0 -28.706,-2.27 -48.041,-6.458c-14.319,-3.102 -33.76,-10.773 -50.633,-13.747c-21.306,-3.756 -32.212,-5.108 -32.212,-5.108" style="fill:#2e4844;"/><path d="M120.538,67.767l0,27.092l-17.054,2.373c0,0 -7.971,-3.337 -18.191,-6.693c-10.219,-3.356 -16.431,-4.609 -16.431,-4.609l0,-8.166l51.639,-15.086l46.589,13.039l0,4.884l-11.397,-3.444l0,11.875l-6.575,0.712l0,-14.089l-28.579,-7.887Z" style="fill:#2e4844;"/><path d="M212.981,52.827l0,13.508c0,2.979 0.054,5.186 0.162,6.622c0.108,1.435 0.352,2.329 0.731,2.681c0.163,0.163 0.359,0.305 0.589,0.427c0.23,0.122 0.528,0.217 0.894,0.284c0.366,0.068 0.826,0.122 1.381,0.163c0.555,0.041 1.226,0.061 2.011,0.061c1.083,0 2.052,-0.054 2.905,-0.162c0.853,-0.108 1.523,-0.46 2.011,-1.056c0.271,-0.325 0.501,-0.718 0.691,-1.178c0.19,-0.46 0.311,-0.88 0.366,-1.259c0.054,-0.352 0.176,-0.528 0.366,-0.528c0.163,0 0.244,0.203 0.244,0.609c0,0.108 -0.014,0.325 -0.041,0.65c-0.027,0.325 -0.074,0.691 -0.142,1.097c-0.068,0.406 -0.135,0.819 -0.203,1.239c-0.068,0.42 -0.142,0.779 -0.223,1.077c-0.081,0.244 -0.156,0.433 -0.223,0.569c-0.068,0.135 -0.183,0.244 -0.345,0.325c-0.162,0.081 -0.399,0.135 -0.711,0.162c-0.311,0.027 -0.738,0.041 -1.28,0.041c-1.463,0 -2.735,-0.014 -3.819,-0.041c-1.083,-0.027 -2.058,-0.054 -2.925,-0.081c-0.867,-0.054 -1.625,-0.088 -2.275,-0.102c-0.65,-0.014 -1.273,-0.02 -1.869,-0.02c-0.081,0 -0.278,0.007 -0.589,0.02c-0.311,0.014 -0.67,0.02 -1.077,0.02c-0.406,0.027 -0.819,0.047 -1.239,0.061c-0.42,0.014 -0.779,0.02 -1.077,0.02c-0.433,0 -0.65,-0.108 -0.65,-0.325c0,-0.162 0.108,-0.244 0.325,-0.244c0.19,0 0.393,-0.014 0.609,-0.041c0.217,-0.027 0.42,-0.068 0.609,-0.122c0.406,-0.081 0.684,-0.325 0.833,-0.731c0.149,-0.406 0.264,-0.907 0.345,-1.503c0.108,-0.867 0.169,-2.065 0.183,-3.595c0.014,-1.53 0.02,-3.27 0.02,-5.22l0,-13.427c0,-0.609 -0.007,-1.097 -0.02,-1.462c-0.014,-0.366 -0.034,-0.711 -0.061,-1.036c-0.054,-0.704 -0.19,-1.232 -0.406,-1.584c-0.217,-0.352 -0.664,-0.596 -1.341,-0.731c-0.162,-0.054 -0.386,-0.088 -0.67,-0.102c-0.284,-0.014 -0.521,-0.02 -0.711,-0.02c-0.217,0 -0.325,-0.081 -0.325,-0.244c0,-0.217 0.217,-0.325 0.65,-0.325c0.46,0 0.948,0.007 1.463,0.02c0.515,0.014 0.995,0.027 1.442,0.041c0.447,0.014 1.632,0.061 1.686,0.061c0.054,0 1.368,-0.047 1.828,-0.061c0.46,-0.014 0.928,-0.027 1.402,-0.041c0.474,-0.014 0.86,-0.02 1.158,-0.02c0.433,0 0.65,0.108 0.65,0.325c0,0.162 -0.108,0.244 -0.325,0.244c-0.135,0 -0.332,0.007 -0.589,0.02c-0.257,0.014 -0.508,0.047 -0.752,0.102c-0.596,0.108 -0.995,0.345 -1.198,0.711c-0.203,0.366 -0.332,0.901 -0.386,1.605c-0.027,0.325 -0.047,0.67 -0.061,1.036c-0.014,0.366 -0.02,0.853 -0.02,1.462Z" style="fill:#2e4844;fill-rule:nonzero;"/><path d="M235.934,56.605l0,11.395c0,1.679 0.007,3.169 0.02,4.469c0.014,1.3 0.061,2.302 0.142,3.006c0.054,0.515 0.149,0.928 0.284,1.239c0.135,0.311 0.474,0.508 1.016,0.589c0.271,0.054 0.569,0.095 0.894,0.122c0.325,0.027 0.569,0.041 0.731,0.041c0.19,0 0.284,0.095 0.284,0.284c0,0.19 -0.19,0.284 -0.569,0.284c-0.487,0 -0.989,-0.007 -1.503,-0.02c-0.515,-0.014 -0.989,-0.027 -1.422,-0.041c-0.433,-0.014 -1.517,-0.061 -1.544,-0.061c-0.054,0 -1.077,0.047 -1.442,0.061c-0.366,0.014 -0.738,0.027 -1.117,0.041c-0.379,0.014 -0.704,0.02 -0.975,0.02c-0.379,0 -0.569,-0.095 -0.569,-0.284c0,-0.19 0.095,-0.284 0.284,-0.284c0.162,0 0.345,-0.014 0.548,-0.041c0.203,-0.027 0.386,-0.068 0.548,-0.122c0.352,-0.081 0.582,-0.278 0.691,-0.589c0.108,-0.311 0.19,-0.724 0.244,-1.239c0.081,-0.704 0.135,-1.706 0.162,-3.006c0.027,-1.3 0.041,-2.79 0.041,-4.469l0,-11.395c0,-0.528 -0.007,-0.948 -0.02,-1.259c-0.014,-0.311 -0.034,-0.603 -0.061,-0.873c-0.054,-0.596 -0.162,-1.036 -0.325,-1.32c-0.162,-0.284 -0.433,-0.467 -0.812,-0.548c-0.217,-0.054 -0.42,-0.088 -0.609,-0.102c-0.19,-0.014 -0.352,-0.02 -0.488,-0.02c-0.19,0 -0.284,-0.095 -0.284,-0.284c0,-0.19 0.19,-0.284 0.569,-0.284c0.298,0 1.808,0.041 2.173,0.041c0.366,0 0.684,0.007 0.955,0.02c0.271,0.014 0.433,0.02 0.487,0.02c0.027,0 0.183,-0.007 0.467,-0.02c0.284,-0.014 0.609,-0.02 0.975,-0.02c0.366,0 1.862,-0.041 2.133,-0.041c0.379,0 0.569,0.095 0.569,0.284c0,0.19 -0.095,0.284 -0.284,0.284l-0.386,0c-0.122,0 -0.291,0.027 -0.508,0.081c-0.488,0.108 -0.806,0.298 -0.955,0.569c-0.149,0.271 -0.251,0.718 -0.305,1.341c0,0.271 -0.007,0.562 -0.02,0.873c-0.014,0.311 -0.02,0.731 -0.02,1.259Z" style="fill:#2e4844;fill-rule:nonzero;"/><path d="M256.287,53.456l0,14.528c0,1.682 0.007,3.174 0.02,4.476c0.014,1.302 0.061,2.306 0.142,3.011c0.054,0.515 0.163,0.929 0.325,1.241c0.163,0.312 0.515,0.509 1.056,0.59c0.244,0.054 0.535,0.095 0.873,0.122c0.339,0.027 0.589,0.041 0.752,0.041c0.19,0 0.284,0.095 0.284,0.284c0,0.19 -0.19,0.284 -0.569,0.284c-0.488,0 -0.982,-0.007 -1.483,-0.02c-0.501,-0.014 -0.961,-0.027 -1.381,-0.041c-0.42,-0.014 -1.51,-0.061 -1.564,-0.061c-0.054,0 -1.131,0.047 -1.523,0.061c-0.393,0.014 -0.785,0.027 -1.178,0.041c-0.393,0.014 -0.724,0.02 -0.995,0.02c-0.379,0 -0.569,-0.095 -0.569,-0.284c0,-0.163 0.095,-0.244 0.284,-0.244c0.162,0 0.339,-0.014 0.528,-0.041c0.19,-0.027 0.366,-0.068 0.528,-0.122c0.379,-0.082 0.636,-0.285 0.772,-0.611c0.135,-0.325 0.23,-0.746 0.284,-1.261c0.081,-0.705 0.129,-1.709 0.142,-3.011c0.014,-1.303 0.02,-2.795 0.02,-4.476l0,-14.528l-5.159,0.081c-1.137,0.027 -1.957,0.115 -2.458,0.264c-0.501,0.149 -0.887,0.427 -1.158,0.833c-0.217,0.298 -0.352,0.521 -0.406,0.67c-0.054,0.149 -0.108,0.291 -0.162,0.427c-0.054,0.217 -0.176,0.325 -0.366,0.325c-0.054,0 -0.108,-0.02 -0.162,-0.061c-0.054,-0.041 -0.081,-0.115 -0.081,-0.223c0,-0.081 0.034,-0.311 0.102,-0.691c0.068,-0.379 0.149,-0.777 0.244,-1.195c0.095,-0.417 0.183,-0.804 0.264,-1.159c0.081,-0.356 0.135,-0.573 0.162,-0.653c0.027,-0.108 0.081,-0.244 0.162,-0.406c0.081,-0.163 0.149,-0.244 0.203,-0.244c0.135,0 0.311,0.054 0.528,0.163c0.217,0.108 0.569,0.19 1.056,0.244c0.515,0.054 1.056,0.095 1.625,0.122c0.569,0.027 0.961,0.041 1.178,0.041l13.488,0c0.596,0 1.097,-0.014 1.503,-0.041c0.406,-0.027 0.758,-0.068 1.056,-0.122c0.271,-0.054 0.488,-0.095 0.65,-0.122c0.163,-0.027 0.284,-0.041 0.366,-0.041c0.108,0 0.162,0.135 0.162,0.406c0,0.264 -0.007,0.594 -0.02,0.99c-0.014,0.396 -0.027,0.79 -0.041,1.183c-0.014,0.393 -0.027,0.752 -0.041,1.077c-0.014,0.325 -0.02,0.542 -0.02,0.65c0,0.298 -0.108,0.447 -0.325,0.447c-0.081,0 -0.142,-0.041 -0.183,-0.122c-0.041,-0.081 -0.074,-0.244 -0.102,-0.488l-0.041,-0.366c-0.027,-0.271 -0.108,-0.515 -0.244,-0.731c-0.135,-0.217 -0.359,-0.413 -0.67,-0.589c-0.311,-0.176 -0.745,-0.311 -1.3,-0.406c-0.555,-0.095 -1.253,-0.156 -2.092,-0.183l-4.469,-0.081Z" style="fill:#2e4844;fill-rule:nonzero;"/><path d="M268.272,64.913c0,-1.381 0.278,-2.864 0.833,-4.448c0.555,-1.584 1.408,-3.047 2.559,-4.387c1.151,-1.341 2.62,-2.451 4.408,-3.331c1.787,-0.88 3.914,-1.32 6.378,-1.32c2.004,0 3.873,0.298 5.606,0.894c1.733,0.596 3.23,1.456 4.489,2.58c1.259,1.124 2.248,2.485 2.966,4.083c0.718,1.598 1.077,3.399 1.077,5.403c0,1.923 -0.345,3.744 -1.036,5.464c-0.691,1.72 -1.659,3.216 -2.905,4.489c-1.246,1.273 -2.756,2.282 -4.53,3.027c-1.774,0.745 -3.731,1.117 -5.87,1.117c-2.438,0 -4.536,-0.413 -6.297,-1.239c-1.76,-0.826 -3.209,-1.896 -4.347,-3.209c-1.137,-1.314 -1.977,-2.776 -2.519,-4.388c-0.542,-1.611 -0.812,-3.189 -0.812,-4.733Zm3.697,-0.915c0,2.008 0.284,3.818 0.853,5.432c0.569,1.614 1.361,2.991 2.377,4.13c1.016,1.139 2.207,2.014 3.575,2.625c1.368,0.61 2.864,0.915 4.489,0.915c0.812,0 1.767,-0.142 2.864,-0.427c1.097,-0.285 2.153,-0.848 3.169,-1.688c1.016,-0.841 1.876,-2.028 2.58,-3.561c0.704,-1.533 1.056,-3.547 1.056,-6.043c0,-2.062 -0.291,-3.886 -0.873,-5.473c-0.582,-1.587 -1.368,-2.909 -2.356,-3.967c-0.989,-1.058 -2.126,-1.859 -3.412,-2.401c-1.286,-0.543 -2.634,-0.814 -4.042,-0.814c-1.49,0 -2.864,0.237 -4.123,0.712c-1.259,0.475 -2.343,1.18 -3.25,2.116c-0.907,0.936 -1.618,2.109 -2.133,3.52c-0.515,1.41 -0.772,3.052 -0.772,4.924Z" style="fill:#2e4844;fill-rule:nonzero;"/><path d="M304.062,68l0,-11.395c0,-0.528 -0.007,-0.948 -0.02,-1.259c-0.014,-0.311 -0.034,-0.603 -0.061,-0.873c-0.054,-0.596 -0.162,-1.043 -0.325,-1.341c-0.163,-0.298 -0.542,-0.488 -1.137,-0.569c-0.135,-0.027 -0.332,-0.047 -0.589,-0.061c-0.257,-0.014 -0.467,-0.02 -0.63,-0.02c-0.19,0 -0.284,-0.095 -0.284,-0.284c0,-0.19 0.19,-0.284 0.569,-0.284c0.406,0 2.234,0.041 2.641,0.041c0.406,0 0.758,0.007 1.056,0.02c0.298,0.014 0.474,0.02 0.528,0.02c0.081,0 0.311,-0.007 0.691,-0.02c0.379,-0.014 2.187,-0.027 2.661,-0.041c0.474,-0.014 0.846,-0.02 1.117,-0.02c1.138,0 2.295,0.088 3.473,0.264c1.178,0.176 2.241,0.589 3.189,1.239c0.217,0.162 0.467,0.386 0.752,0.67c0.284,0.284 0.555,0.63 0.812,1.036c0.257,0.406 0.474,0.86 0.65,1.361c0.176,0.501 0.264,1.049 0.264,1.645c0,1.273 -0.318,2.553 -0.955,3.839c-0.636,1.286 -1.781,2.634 -3.433,4.042c1.463,1.842 2.817,3.521 4.062,5.038c1.246,1.517 2.383,2.817 3.413,3.9c0.948,0.975 1.733,1.605 2.356,1.889c0.623,0.284 1.165,0.454 1.625,0.508c0.352,0.054 0.623,0.088 0.812,0.102c0.19,0.014 0.339,0.02 0.447,0.02c0.217,0 0.325,0.095 0.325,0.284c0,0.108 -0.061,0.183 -0.183,0.223c-0.122,0.041 -0.345,0.061 -0.67,0.061l-2.234,0c-1.029,0 -1.808,-0.054 -2.336,-0.163c-0.528,-0.108 -1.022,-0.284 -1.483,-0.528c-0.785,-0.406 -1.537,-1.029 -2.255,-1.869c-0.718,-0.84 -1.591,-1.909 -2.62,-3.209c-0.379,-0.46 -0.758,-0.941 -1.138,-1.442c-0.379,-0.501 -0.738,-0.975 -1.077,-1.422c-0.339,-0.447 -0.65,-0.86 -0.934,-1.239c-0.284,-0.379 -0.521,-0.691 -0.711,-0.934c-0.135,-0.135 -0.298,-0.203 -0.487,-0.203l-4.55,-0.081c-0.163,0 -0.244,0.095 -0.244,0.284l0,0.812c0,1.679 0.007,3.162 0.02,4.448c0.014,1.286 0.061,2.282 0.142,2.986c0.054,0.515 0.169,0.928 0.345,1.239c0.176,0.311 0.535,0.508 1.077,0.589c0.244,0.054 0.528,0.095 0.853,0.122c0.325,0.027 0.569,0.041 0.731,0.041c0.19,0 0.284,0.095 0.284,0.284c0,0.19 -0.19,0.284 -0.569,0.284c-0.488,0 -0.982,-0.007 -1.483,-0.02c-0.501,-0.014 -0.961,-0.027 -1.381,-0.041c-0.42,-0.014 -1.496,-0.061 -1.523,-0.061c0,0 -0.995,0.047 -1.361,0.061c-0.366,0.014 -0.752,0.027 -1.158,0.041c-0.406,0.014 -0.745,0.02 -1.016,0.02c-0.379,0 -0.569,-0.095 -0.569,-0.284c0,-0.19 0.095,-0.284 0.284,-0.284c0.163,0 0.345,-0.014 0.548,-0.041c0.203,-0.027 0.386,-0.068 0.548,-0.122c0.352,-0.081 0.576,-0.278 0.67,-0.589c0.095,-0.311 0.183,-0.724 0.264,-1.239c0.108,-0.704 0.169,-1.706 0.183,-3.006c0.014,-1.3 0.02,-2.79 0.02,-4.469Zm3.087,-14.259l0,11.091c0,0.19 0.081,0.339 0.244,0.447c0.135,0.081 0.339,0.149 0.609,0.203c0.271,0.054 0.589,0.108 0.955,0.163c0.366,0.054 0.752,0.095 1.158,0.122c0.406,0.027 0.812,0.041 1.219,0.041c0.433,0 0.88,-0.027 1.341,-0.081c0.46,-0.054 0.907,-0.23 1.341,-0.528c0.623,-0.406 1.137,-1.056 1.544,-1.95c0.406,-0.894 0.609,-2.004 0.609,-3.331c0,-2.167 -0.548,-3.839 -1.645,-5.017c-1.097,-1.178 -2.607,-1.767 -4.53,-1.767c-0.542,0 -1.056,0.02 -1.544,0.061c-0.488,0.041 -0.826,0.088 -1.016,0.142c-0.19,0.108 -0.284,0.244 -0.284,0.406Z" style="fill:#2e4844;fill-rule:nonzero;"/><path d="M328.6,74.216l8.409,-21.612c0.217,-0.569 0.379,-0.934 0.487,-1.097c0.108,-0.163 0.23,-0.244 0.366,-0.244c0.19,0 0.332,0.115 0.427,0.345c0.095,0.23 0.237,0.535 0.427,0.914c0.108,0.244 0.345,0.812 0.711,1.706c0.366,0.894 0.806,1.97 1.32,3.23c0.515,1.259 1.077,2.641 1.686,4.144c0.609,1.503 1.212,2.986 1.808,4.448c0.596,1.462 1.165,2.851 1.706,4.164c0.542,1.314 0.989,2.404 1.341,3.27c0.325,0.785 0.63,1.408 0.914,1.869c0.284,0.46 0.555,0.826 0.812,1.097c0.257,0.271 0.494,0.46 0.711,0.569c0.217,0.108 0.42,0.19 0.609,0.244c0.271,0.081 0.528,0.135 0.772,0.163c0.244,0.027 0.46,0.041 0.65,0.041c0.108,0 0.21,0.02 0.305,0.061c0.095,0.041 0.142,0.115 0.142,0.223c0,0.108 -0.081,0.183 -0.244,0.223c-0.163,0.041 -0.352,0.061 -0.569,0.061l-2.092,0c-0.528,0 -1.097,-0.007 -1.706,-0.02c-0.609,-0.014 -1.226,-0.034 -1.848,-0.061c-0.352,-0.027 -0.65,-0.047 -0.894,-0.061c-0.244,-0.014 -0.366,-0.074 -0.366,-0.183c0,-0.081 0.02,-0.129 0.061,-0.142c0.041,-0.014 0.102,-0.047 0.183,-0.102c0.108,-0.054 0.223,-0.149 0.345,-0.284c0.122,-0.135 0.115,-0.352 -0.02,-0.65l-3.209,-7.922c-0.081,-0.135 -0.19,-0.203 -0.325,-0.203l-8.247,0c-0.163,0 -0.284,0.095 -0.366,0.284l-2.031,5.525c-0.352,0.921 -0.528,1.693 -0.528,2.316c0,0.352 0.129,0.596 0.386,0.731c0.257,0.135 0.535,0.203 0.833,0.203l0.325,0c0.244,0 0.366,0.095 0.366,0.284c0,0.19 -0.176,0.284 -0.528,0.284c-0.217,0 -0.488,-0.007 -0.812,-0.02c-0.325,-0.014 -0.65,-0.027 -0.975,-0.041c-0.325,-0.014 -0.616,-0.027 -0.873,-0.041c-0.257,-0.014 -0.44,-0.02 -0.548,-0.02c-0.081,0 -1.063,0.047 -1.402,0.061c-0.339,0.014 -0.704,0.027 -1.097,0.041c-0.393,0.014 -0.765,0.02 -1.117,0.02c-0.46,0 -0.691,-0.095 -0.691,-0.284c0,-0.19 0.108,-0.284 0.325,-0.284c0.135,0 0.311,-0.007 0.528,-0.02c0.217,-0.014 0.393,-0.034 0.528,-0.061c0.812,-0.108 1.429,-0.447 1.848,-1.016c0.42,-0.569 0.806,-1.286 1.158,-2.153Zm5.159,-7.191l7.231,0c0.108,0 0.149,-0.081 0.122,-0.244l-3.534,-9.466c-0.217,-0.515 -0.42,-0.515 -0.609,0l-3.331,9.466c-0.054,0.163 -0.014,0.244 0.122,0.244Z" style="fill:#2e4844;fill-rule:nonzero;"/><path d="M360.165,56.605l0,11.477c0,1.273 0.007,2.363 0.02,3.27c0.014,0.907 0.047,1.666 0.102,2.275c0.054,0.609 0.129,1.09 0.223,1.442c0.095,0.352 0.223,0.609 0.386,0.772c0.298,0.298 0.812,0.508 1.544,0.63c0.731,0.122 1.801,0.183 3.209,0.183c0.948,0 1.794,-0.047 2.539,-0.142c0.745,-0.095 1.334,-0.399 1.767,-0.914c0.217,-0.271 0.399,-0.576 0.548,-0.914c0.149,-0.339 0.251,-0.684 0.305,-1.036c0.054,-0.298 0.176,-0.447 0.366,-0.447c0.162,0 0.244,0.176 0.244,0.528c0,0.081 -0.014,0.264 -0.041,0.548c-0.027,0.284 -0.068,0.596 -0.122,0.934c-0.054,0.339 -0.108,0.691 -0.162,1.056c-0.054,0.366 -0.122,0.67 -0.203,0.914c-0.054,0.217 -0.115,0.386 -0.183,0.508c-0.068,0.122 -0.176,0.21 -0.325,0.264c-0.149,0.054 -0.359,0.095 -0.63,0.122c-0.271,0.027 -0.65,0.041 -1.138,0.041c-2.492,0 -4.564,-0.041 -6.216,-0.122c-0.812,-0.027 -1.53,-0.047 -2.153,-0.061c-0.623,-0.014 -1.205,-0.02 -1.747,-0.02l-0.528,0c-0.271,0 -0.582,0.014 -0.934,0.041c-0.379,0.027 -0.745,0.047 -1.097,0.061c-0.352,0.014 -0.677,0.02 -0.975,0.02c-0.379,0 -0.569,-0.095 -0.569,-0.284c0,-0.19 0.095,-0.284 0.284,-0.284c0.163,0 0.345,-0.014 0.548,-0.041c0.203,-0.027 0.386,-0.068 0.548,-0.122c0.352,-0.081 0.576,-0.278 0.67,-0.589c0.095,-0.311 0.183,-0.724 0.264,-1.239c0.108,-0.704 0.169,-1.706 0.183,-3.006c0.014,-1.3 0.02,-2.79 0.02,-4.469l0,-11.395c0,-0.528 -0.007,-0.948 -0.02,-1.259c-0.014,-0.311 -0.034,-0.603 -0.061,-0.873c-0.054,-0.596 -0.162,-1.043 -0.325,-1.341c-0.163,-0.298 -0.542,-0.488 -1.137,-0.569c-0.135,-0.027 -0.332,-0.047 -0.589,-0.061c-0.257,-0.014 -0.467,-0.02 -0.63,-0.02c-0.19,0 -0.284,-0.095 -0.284,-0.284c0,-0.19 0.19,-0.284 0.569,-0.284c0.406,0 2.187,0.041 2.58,0.041c0.393,0 0.724,0.007 0.995,0.02c0.271,0.014 0.433,0.02 0.488,0.02c0.027,0 0.203,-0.007 0.528,-0.02c0.325,-0.014 0.691,-0.02 1.097,-0.02c0.406,0 0.826,-0.007 1.259,-0.02c0.433,-0.014 0.785,-0.02 1.056,-0.02c0.379,0 0.569,0.095 0.569,0.284c0,0.162 -0.095,0.244 -0.284,0.244c-0.135,0 -0.311,0.007 -0.528,0.02c-0.217,0.014 -0.433,0.034 -0.65,0.061c-0.542,0.108 -0.887,0.305 -1.036,0.589c-0.149,0.284 -0.251,0.738 -0.305,1.361c0,0.271 -0.007,0.562 -0.02,0.873c-0.014,0.311 -0.02,0.731 -0.02,1.259Z" style="fill:#2e4844;fill-rule:nonzero;"/><path d="M395.631,78.603c-0.948,0 -1.882,-0.079 -2.803,-0.237c-0.921,-0.158 -1.801,-0.434 -2.641,-0.83c-0.298,-0.132 -0.474,-0.285 -0.528,-0.459c-0.054,-0.174 -0.081,-0.532 -0.081,-1.074c0,-1.029 0.027,-1.923 0.081,-2.681c0.054,-0.758 0.095,-1.3 0.122,-1.625c0.027,-0.433 0.135,-0.65 0.325,-0.65c0.19,0 0.284,0.149 0.284,0.447c0,0.19 0.007,0.413 0.02,0.67c0.014,0.257 0.047,0.535 0.102,0.833c0.162,0.758 0.433,1.402 0.812,1.93c0.379,0.528 0.846,0.955 1.402,1.28c0.555,0.325 1.158,0.562 1.808,0.711c0.65,0.149 1.314,0.223 1.991,0.223c0.975,0 1.828,-0.163 2.559,-0.488c0.731,-0.325 1.334,-0.739 1.808,-1.24c0.474,-0.502 0.833,-1.078 1.077,-1.729c0.244,-0.651 0.366,-1.302 0.366,-1.953c0,-0.705 -0.081,-1.35 -0.244,-1.932c-0.163,-0.583 -0.427,-1.153 -0.792,-1.709c-0.366,-0.556 -0.846,-1.126 -1.442,-1.709c-0.596,-0.583 -1.327,-1.241 -2.194,-1.973l-1.828,-1.505c-1.083,-0.895 -1.964,-1.722 -2.641,-2.481c-0.677,-0.76 -1.212,-1.499 -1.605,-2.217c-0.393,-0.719 -0.664,-1.41 -0.812,-2.074c-0.149,-0.664 -0.223,-1.349 -0.223,-2.055c0,-1.085 0.196,-2.074 0.589,-2.969c0.393,-0.895 0.955,-1.668 1.686,-2.319c0.731,-0.651 1.611,-1.153 2.641,-1.505c1.029,-0.353 2.194,-0.529 3.494,-0.529c0.785,0 1.483,0.034 2.092,0.102c0.609,0.068 1.171,0.169 1.686,0.305c0.379,0.081 0.67,0.135 0.873,0.163c0.203,0.027 0.386,0.041 0.548,0.041c0.271,-0 0.406,0.095 0.406,0.284c0,0.108 -0.027,0.508 -0.081,1.198c-0.054,0.691 -0.081,1.727 -0.081,3.108c0,0.623 -0.095,0.934 -0.284,0.934c-0.135,0 -0.217,-0.047 -0.244,-0.142c-0.027,-0.095 -0.054,-0.223 -0.081,-0.386c-0.027,-0.244 -0.088,-0.589 -0.183,-1.036c-0.095,-0.447 -0.21,-0.779 -0.345,-0.995c-0.054,-0.108 -0.176,-0.284 -0.366,-0.528c-0.19,-0.244 -0.481,-0.487 -0.873,-0.731c-0.393,-0.244 -0.901,-0.454 -1.523,-0.63c-0.623,-0.176 -1.395,-0.264 -2.316,-0.264c-1.408,0 -2.593,0.413 -3.555,1.239c-0.961,0.826 -1.442,1.984 -1.442,3.473c0,0.569 0.074,1.104 0.223,1.605c0.149,0.501 0.413,1.009 0.792,1.523c0.379,0.515 0.887,1.07 1.523,1.666c0.636,0.596 1.442,1.273 2.417,2.031l1.137,0.894c1.192,0.948 2.173,1.828 2.945,2.641c0.772,0.812 1.381,1.591 1.828,2.336c0.447,0.745 0.752,1.49 0.914,2.234c0.163,0.745 0.244,1.523 0.244,2.336c0,0.406 -0.047,0.894 -0.142,1.463c-0.095,0.569 -0.271,1.165 -0.528,1.787c-0.257,0.623 -0.609,1.239 -1.056,1.848c-0.447,0.609 -1.022,1.158 -1.727,1.645c-0.867,0.623 -1.828,1.063 -2.884,1.32c-1.056,0.257 -2.14,0.386 -3.25,0.386Z" style="fill:#2e4844;fill-rule:nonzero;"/><path d="M422.809,53.456l0,14.528c0,1.682 0.007,3.174 0.02,4.476c0.014,1.302 0.061,2.306 0.142,3.011c0.054,0.515 0.162,0.929 0.325,1.241c0.162,0.312 0.515,0.509 1.056,0.59c0.244,0.054 0.535,0.095 0.873,0.122c0.339,0.027 0.589,0.041 0.752,0.041c0.19,0 0.284,0.095 0.284,0.284c0,0.19 -0.19,0.284 -0.569,0.284c-0.487,0 -0.982,-0.007 -1.483,-0.02c-0.501,-0.014 -0.961,-0.027 -1.381,-0.041c-0.42,-0.014 -1.51,-0.061 -1.564,-0.061c-0.054,0 -1.131,0.047 -1.523,0.061c-0.393,0.014 -0.785,0.027 -1.178,0.041c-0.393,0.014 -0.724,0.02 -0.995,0.02c-0.379,0 -0.569,-0.095 -0.569,-0.284c0,-0.163 0.095,-0.244 0.284,-0.244c0.163,0 0.339,-0.014 0.528,-0.041c0.19,-0.027 0.366,-0.068 0.528,-0.122c0.379,-0.082 0.636,-0.285 0.772,-0.611c0.135,-0.325 0.23,-0.746 0.284,-1.261c0.081,-0.705 0.129,-1.709 0.142,-3.011c0.014,-1.303 0.02,-2.795 0.02,-4.476l0,-14.528l-5.159,0.081c-1.137,0.027 -1.957,0.115 -2.458,0.264c-0.501,0.149 -0.887,0.427 -1.158,0.833c-0.217,0.298 -0.352,0.521 -0.406,0.67c-0.054,0.149 -0.108,0.291 -0.162,0.427c-0.054,0.217 -0.176,0.325 -0.366,0.325c-0.054,0 -0.108,-0.02 -0.162,-0.061c-0.054,-0.041 -0.081,-0.115 -0.081,-0.223c0,-0.081 0.034,-0.311 0.102,-0.691c0.068,-0.379 0.149,-0.777 0.244,-1.195c0.095,-0.417 0.183,-0.804 0.264,-1.159c0.081,-0.356 0.135,-0.573 0.162,-0.653c0.027,-0.108 0.081,-0.244 0.163,-0.406c0.081,-0.163 0.149,-0.244 0.203,-0.244c0.135,0 0.311,0.054 0.528,0.163c0.217,0.108 0.569,0.19 1.056,0.244c0.515,0.054 1.056,0.095 1.625,0.122c0.569,0.027 0.961,0.041 1.178,0.041l13.488,0c0.596,0 1.097,-0.014 1.503,-0.041c0.406,-0.027 0.758,-0.068 1.056,-0.122c0.271,-0.054 0.488,-0.095 0.65,-0.122c0.162,-0.027 0.284,-0.041 0.366,-0.041c0.108,0 0.163,0.135 0.163,0.406c0,0.264 -0.007,0.594 -0.02,0.99c-0.014,0.396 -0.027,0.79 -0.041,1.183c-0.014,0.393 -0.027,0.752 -0.041,1.077c-0.014,0.325 -0.02,0.542 -0.02,0.65c0,0.298 -0.108,0.447 -0.325,0.447c-0.081,0 -0.142,-0.041 -0.183,-0.122c-0.041,-0.081 -0.074,-0.244 -0.102,-0.488l-0.041,-0.366c-0.027,-0.271 -0.108,-0.515 -0.244,-0.731c-0.135,-0.217 -0.359,-0.413 -0.67,-0.589c-0.311,-0.176 -0.745,-0.311 -1.3,-0.406c-0.555,-0.095 -1.253,-0.156 -2.092,-0.183l-4.469,-0.081Z" style="fill:#2e4844;fill-rule:nonzero;"/><path d="M437.962,66.984l0,-10.38c0,-0.528 -0.007,-0.948 -0.02,-1.259c-0.014,-0.311 -0.034,-0.603 -0.061,-0.873c-0.054,-0.542 -0.162,-0.975 -0.325,-1.3c-0.163,-0.325 -0.542,-0.528 -1.137,-0.609c-0.135,-0.027 -0.332,-0.047 -0.589,-0.061c-0.257,-0.014 -0.467,-0.02 -0.63,-0.02c-0.19,0 -0.284,-0.095 -0.284,-0.284c0,-0.19 0.19,-0.284 0.569,-0.284c0.406,0 2.146,0.041 2.539,0.041c0.393,0 0.731,0.007 1.016,0.02c0.284,0.014 0.467,0.02 0.548,0.02c0.081,0 0.264,-0.007 0.548,-0.02c0.284,-0.014 1.713,-0.027 2.092,-0.041c0.379,-0.014 0.704,-0.02 0.975,-0.02c0.406,0 0.609,0.095 0.609,0.284c0,0.19 -0.108,0.284 -0.325,0.284l-0.386,0c-0.122,0 -0.291,0.027 -0.508,0.081c-0.46,0.082 -0.765,0.278 -0.914,0.59c-0.149,0.312 -0.251,0.753 -0.305,1.322c-0.027,0.271 -0.047,0.563 -0.061,0.875c-0.014,0.312 -0.02,0.732 -0.02,1.261l0,10.152c0,1.248 0.068,2.326 0.203,3.235c0.135,0.909 0.318,1.695 0.548,2.36c0.23,0.664 0.508,1.22 0.833,1.668c0.325,0.448 0.677,0.848 1.056,1.2c0.867,0.787 1.713,1.295 2.539,1.526c0.826,0.231 1.754,0.346 2.783,0.346c1.11,0 2.153,-0.224 3.128,-0.672c0.975,-0.448 1.774,-1.038 2.397,-1.77c0.84,-1.004 1.388,-2.204 1.645,-3.601c0.257,-1.397 0.386,-2.991 0.386,-4.782l0,-7.61c0,-0.841 -0.007,-1.526 -0.02,-2.055c-0.014,-0.529 -0.027,-0.95 -0.041,-1.262c-0.014,-0.312 -0.02,-0.603 -0.02,-0.875c-0.027,-0.543 -0.122,-0.976 -0.284,-1.302c-0.162,-0.326 -0.542,-0.529 -1.137,-0.611c-0.135,-0.027 -0.332,-0.047 -0.589,-0.061c-0.257,-0.014 -0.467,-0.02 -0.63,-0.02c-0.19,0 -0.284,-0.095 -0.284,-0.284c0,-0.19 0.19,-0.284 0.569,-0.284c0.406,0 2.092,0.041 2.458,0.041c0.366,0 0.677,0.007 0.934,0.02c0.257,0.014 0.413,0.02 0.467,0.02c0.135,0 0.535,-0.014 1.198,-0.041c0.664,-0.027 1.266,-0.041 1.808,-0.041c0.379,0 0.569,0.095 0.569,0.284c0,0.19 -0.095,0.284 -0.284,0.284l-0.386,0c-0.122,0 -0.291,0.027 -0.508,0.081c-0.487,0.108 -0.806,0.311 -0.955,0.609c-0.149,0.298 -0.251,0.731 -0.305,1.3c-0.027,0.271 -0.041,0.562 -0.041,0.873l0,10.258c0,0.948 -0.041,1.903 -0.122,2.864c-0.081,0.961 -0.244,1.896 -0.487,2.803c-0.244,0.907 -0.582,1.767 -1.016,2.58c-0.433,0.812 -1.002,1.517 -1.706,2.112c-0.65,0.569 -1.307,1.016 -1.97,1.341c-0.664,0.325 -1.314,0.576 -1.95,0.752c-0.636,0.176 -1.259,0.291 -1.869,0.345c-0.609,0.054 -1.171,0.081 -1.686,0.081c-0.298,0 -0.731,-0.014 -1.3,-0.041c-0.569,-0.027 -1.205,-0.122 -1.909,-0.284c-0.704,-0.163 -1.429,-0.406 -2.173,-0.731c-0.745,-0.325 -1.429,-0.785 -2.052,-1.381c-0.433,-0.406 -0.84,-0.873 -1.219,-1.402c-0.379,-0.528 -0.711,-1.144 -0.995,-1.848c-0.284,-0.704 -0.508,-1.53 -0.67,-2.478c-0.162,-0.948 -0.244,-2.058 -0.244,-3.331Z" style="fill:#2e4844;fill-rule:nonzero;"/><path d="M469.528,68l0,-11.395c0,-0.528 -0.007,-0.948 -0.02,-1.259c-0.014,-0.311 -0.034,-0.603 -0.061,-0.873c-0.054,-0.596 -0.162,-1.043 -0.325,-1.341c-0.163,-0.298 -0.542,-0.488 -1.137,-0.569c-0.135,-0.027 -0.332,-0.047 -0.589,-0.061c-0.257,-0.014 -0.467,-0.02 -0.63,-0.02c-0.19,0 -0.284,-0.095 -0.284,-0.284c0,-0.19 0.19,-0.284 0.569,-0.284c0.406,0 2.194,0.041 2.6,0.041c0.406,0 0.752,0.007 1.036,0.02c0.284,0.014 0.454,0.02 0.508,0.02c0.108,0 0.318,-0.007 0.63,-0.02c0.311,-0.014 0.691,-0.02 1.137,-0.02c0.447,0 0.928,-0.007 1.442,-0.02c0.515,-0.014 1.043,-0.02 1.584,-0.02c0.894,0 1.943,0.007 3.148,0.02c1.205,0.014 2.465,0.129 3.778,0.345c1.314,0.217 2.614,0.603 3.9,1.158c1.286,0.555 2.458,1.361 3.514,2.417c0.894,0.894 1.699,2.065 2.417,3.514c0.718,1.449 1.077,3.203 1.077,5.261c0,1.083 -0.108,2.106 -0.325,3.067c-0.217,0.961 -0.501,1.848 -0.853,2.661c-0.352,0.812 -0.765,1.551 -1.239,2.214c-0.474,0.664 -0.955,1.253 -1.442,1.767c-0.379,0.406 -0.873,0.84 -1.483,1.3c-0.609,0.46 -1.354,0.887 -2.234,1.28c-0.88,0.393 -1.909,0.724 -3.088,0.995c-1.178,0.271 -2.526,0.406 -4.042,0.406c-0.785,0 -1.618,-0.02 -2.498,-0.061c-0.88,-0.041 -1.713,-0.088 -2.498,-0.142c-0.785,-0.054 -1.449,-0.102 -1.991,-0.142c-0.542,-0.041 -0.853,-0.061 -0.934,-0.061c-0.054,0 -0.217,0.007 -0.487,0.02c-0.271,0.014 -0.596,0.02 -0.975,0.02c-0.379,0.027 -0.758,0.047 -1.137,0.061c-0.379,0.014 -0.718,0.02 -1.016,0.02c-0.379,0 -0.569,-0.095 -0.569,-0.284c0,-0.19 0.095,-0.284 0.284,-0.284c0.163,0 0.345,-0.014 0.548,-0.041c0.203,-0.027 0.386,-0.068 0.548,-0.122c0.352,-0.081 0.576,-0.278 0.67,-0.589c0.095,-0.311 0.183,-0.724 0.264,-1.239c0.108,-0.704 0.169,-1.706 0.183,-3.006c0.014,-1.3 0.02,-2.79 0.02,-4.469Zm3.25,-13.894l0,16.433c0,0.664 0.007,1.226 0.02,1.686c0.014,0.46 0.02,0.772 0.02,0.934c0.027,0.433 0.068,0.907 0.122,1.422c0.054,0.515 0.149,0.867 0.284,1.056c0.108,0.163 0.284,0.325 0.528,0.488c0.244,0.162 0.589,0.311 1.036,0.447c0.447,0.135 1.022,0.244 1.727,0.325c0.704,0.081 1.584,0.122 2.641,0.122c1.652,0 3.189,-0.264 4.611,-0.792c1.422,-0.528 2.674,-1.307 3.758,-2.336c0.46,-0.433 0.867,-0.955 1.219,-1.564c0.352,-0.609 0.643,-1.273 0.873,-1.991c0.23,-0.718 0.406,-1.476 0.528,-2.275c0.122,-0.799 0.183,-1.591 0.183,-2.377c0,-1.083 -0.108,-2.079 -0.325,-2.986c-0.217,-0.907 -0.488,-1.72 -0.812,-2.438c-0.325,-0.718 -0.691,-1.341 -1.097,-1.869c-0.406,-0.528 -0.785,-0.982 -1.137,-1.361c-0.84,-0.84 -1.713,-1.517 -2.62,-2.031c-0.907,-0.515 -1.848,-0.907 -2.823,-1.178c-0.975,-0.271 -1.977,-0.447 -3.006,-0.528c-1.029,-0.081 -2.072,-0.122 -3.128,-0.122c-0.352,0 -0.758,0.027 -1.219,0.081c-0.46,0.054 -0.772,0.108 -0.934,0.163c-0.298,0.108 -0.447,0.339 -0.447,0.691Z" style="fill:#2e4844;fill-rule:nonzero;"/><path d="M505.278,56.605l0,11.395c0,1.679 0.007,3.169 0.02,4.469c0.014,1.3 0.061,2.302 0.142,3.006c0.054,0.515 0.149,0.928 0.284,1.239c0.135,0.311 0.474,0.508 1.016,0.589c0.271,0.054 0.569,0.095 0.894,0.122c0.325,0.027 0.569,0.041 0.731,0.041c0.19,0 0.284,0.095 0.284,0.284c0,0.19 -0.19,0.284 -0.569,0.284c-0.488,0 -0.989,-0.007 -1.503,-0.02c-0.515,-0.014 -0.989,-0.027 -1.422,-0.041c-0.433,-0.014 -1.517,-0.061 -1.544,-0.061c-0.054,0 -1.077,0.047 -1.442,0.061c-0.366,0.014 -0.738,0.027 -1.117,0.041c-0.379,0.014 -0.704,0.02 -0.975,0.02c-0.379,0 -0.569,-0.095 -0.569,-0.284c0,-0.19 0.095,-0.284 0.284,-0.284c0.163,0 0.345,-0.014 0.548,-0.041c0.203,-0.027 0.386,-0.068 0.548,-0.122c0.352,-0.081 0.582,-0.278 0.691,-0.589c0.108,-0.311 0.19,-0.724 0.244,-1.239c0.081,-0.704 0.135,-1.706 0.163,-3.006c0.027,-1.3 0.041,-2.79 0.041,-4.469l0,-11.395c0,-0.528 -0.007,-0.948 -0.02,-1.259c-0.014,-0.311 -0.034,-0.603 -0.061,-0.873c-0.054,-0.596 -0.162,-1.036 -0.325,-1.32c-0.163,-0.284 -0.433,-0.467 -0.812,-0.548c-0.217,-0.054 -0.42,-0.088 -0.609,-0.102c-0.19,-0.014 -0.352,-0.02 -0.488,-0.02c-0.19,0 -0.284,-0.095 -0.284,-0.284c0,-0.19 0.19,-0.284 0.569,-0.284c0.298,0 1.808,0.041 2.173,0.041c0.366,0 0.684,0.007 0.955,0.02c0.271,0.014 0.433,0.02 0.488,0.02c0.027,0 0.183,-0.007 0.467,-0.02c0.284,-0.014 0.609,-0.02 0.975,-0.02c0.366,0 1.862,-0.041 2.133,-0.041c0.379,0 0.569,0.095 0.569,0.284c0,0.19 -0.095,0.284 -0.284,0.284l-0.386,0c-0.122,0 -0.291,0.027 -0.508,0.081c-0.488,0.108 -0.806,0.298 -0.955,0.569c-0.149,0.271 -0.251,0.718 -0.305,1.341c0,0.271 -0.007,0.562 -0.02,0.873c-0.014,0.311 -0.02,0.731 -0.02,1.259Z" style="fill:#2e4844;fill-rule:nonzero;"/><path d="M513.2,64.913c0,-1.381 0.278,-2.864 0.833,-4.448c0.555,-1.584 1.408,-3.047 2.559,-4.387c1.151,-1.341 2.62,-2.451 4.408,-3.331c1.788,-0.88 3.914,-1.32 6.378,-1.32c2.004,0 3.873,0.298 5.606,0.894c1.733,0.596 3.23,1.456 4.489,2.58c1.259,1.124 2.248,2.485 2.966,4.083c0.718,1.598 1.077,3.399 1.077,5.403c0,1.923 -0.345,3.744 -1.036,5.464c-0.691,1.72 -1.659,3.216 -2.905,4.489c-1.246,1.273 -2.756,2.282 -4.53,3.027c-1.774,0.745 -3.731,1.117 -5.87,1.117c-2.438,0 -4.536,-0.413 -6.297,-1.239c-1.76,-0.826 -3.209,-1.896 -4.347,-3.209c-1.138,-1.314 -1.977,-2.776 -2.519,-4.388c-0.542,-1.611 -0.812,-3.189 -0.812,-4.733Zm3.697,-0.915c0,2.008 0.284,3.818 0.853,5.432c0.569,1.614 1.361,2.991 2.377,4.13c1.016,1.139 2.207,2.014 3.575,2.625c1.368,0.61 2.864,0.915 4.489,0.915c0.812,0 1.767,-0.142 2.864,-0.427c1.097,-0.285 2.153,-0.848 3.169,-1.688c1.016,-0.841 1.876,-2.028 2.58,-3.561c0.704,-1.533 1.056,-3.547 1.056,-6.043c0,-2.062 -0.291,-3.886 -0.873,-5.473c-0.582,-1.587 -1.368,-2.909 -2.356,-3.967c-0.989,-1.058 -2.126,-1.859 -3.413,-2.401c-1.286,-0.543 -2.634,-0.814 -4.042,-0.814c-1.49,0 -2.864,0.237 -4.123,0.712c-1.259,0.475 -2.343,1.18 -3.25,2.116c-0.907,0.936 -1.618,2.109 -2.133,3.52c-0.515,1.41 -0.772,3.052 -0.772,4.924Z" style="fill:#2e4844;fill-rule:nonzero;"/><path d="M225.378,100.777l3.436,-8.948l1.276,0l3.662,8.948l-1.349,0l-1.044,-2.71l-3.741,0l-0.983,2.71l-1.257,0Zm2.582,-3.674l3.033,0l-0.934,-2.478c-0.285,-0.753 -0.496,-1.371 -0.635,-1.855c-0.114,0.574 -0.275,1.143 -0.482,1.709l-0.983,2.625Z" style="fill:#ae916c;fill-rule:nonzero;"/><path d="M237.991,100.777l0,-8.948l3.967,0c0.798,0 1.404,0.08 1.819,0.241c0.415,0.161 0.747,0.445 0.995,0.851c0.248,0.407 0.372,0.857 0.372,1.349c0,0.635 -0.205,1.17 -0.616,1.605c-0.411,0.435 -1.046,0.712 -1.904,0.83c0.313,0.151 0.551,0.299 0.714,0.446c0.346,0.317 0.673,0.714 0.983,1.19l1.556,2.435l-1.489,0l-1.184,-1.862c-0.346,-0.537 -0.631,-0.948 -0.854,-1.233c-0.224,-0.285 -0.424,-0.484 -0.601,-0.598c-0.177,-0.114 -0.357,-0.193 -0.54,-0.238c-0.134,-0.028 -0.354,-0.043 -0.659,-0.043l-1.373,0l0,3.973l-1.184,0Zm1.184,-4.999l2.545,0c0.541,0 0.964,-0.056 1.27,-0.168c0.305,-0.112 0.537,-0.291 0.696,-0.537c0.159,-0.246 0.238,-0.514 0.238,-0.803c0,-0.423 -0.154,-0.771 -0.461,-1.044c-0.307,-0.273 -0.792,-0.409 -1.456,-0.409l-2.832,0l0,2.96Z" style="fill:#ae916c;fill-rule:nonzero;"/><path d="M256.659,97.64l1.184,0.299c-0.248,0.972 -0.695,1.714 -1.34,2.225c-0.645,0.511 -1.433,0.766 -2.365,0.766c-0.964,0 -1.749,-0.196 -2.353,-0.589c-0.604,-0.393 -1.064,-0.961 -1.379,-1.706c-0.315,-0.745 -0.473,-1.544 -0.473,-2.399c0,-0.932 0.178,-1.745 0.534,-2.438c0.356,-0.694 0.863,-1.221 1.52,-1.581c0.657,-0.36 1.38,-0.54 2.17,-0.54c0.895,0 1.648,0.228 2.258,0.684c0.61,0.456 1.036,1.097 1.276,1.923l-1.166,0.275c-0.208,-0.651 -0.509,-1.125 -0.903,-1.422c-0.395,-0.297 -0.891,-0.446 -1.489,-0.446c-0.688,0 -1.262,0.165 -1.724,0.494c-0.462,0.33 -0.786,0.772 -0.974,1.328c-0.187,0.555 -0.281,1.128 -0.281,1.718c0,0.761 0.111,1.425 0.333,1.993c0.222,0.568 0.567,0.992 1.035,1.273c0.468,0.281 0.975,0.421 1.52,0.421c0.663,0 1.225,-0.191 1.685,-0.574c0.46,-0.382 0.771,-0.95 0.934,-1.703Z" style="fill:#ae916c;fill-rule:nonzero;"/><path d="M262.614,100.777l0,-8.948l1.184,0l0,3.674l4.651,0l0,-3.674l1.184,0l0,8.948l-1.184,0l0,-4.218l-4.651,0l0,4.218l-1.184,0Z" style="fill:#ae916c;fill-rule:nonzero;"/><rect x="275.081" y="91.829" width="1.184" height="8.948" style="fill:#ae916c;fill-rule:nonzero;"/><path d="M283.904,100.777l0,-7.892l-2.948,0l0,-1.056l7.092,0l0,1.056l-2.96,0l0,7.892l-1.184,0Z" style="fill:#ae916c;fill-rule:nonzero;"/><path d="M292.562,100.777l0,-8.948l6.47,0l0,1.056l-5.286,0l0,2.74l4.95,0l0,1.05l-4.95,0l0,3.046l5.493,0l0,1.056l-6.677,0Z" style="fill:#ae916c;fill-rule:nonzero;"/><path d="M310.534,97.64l1.184,0.299c-0.248,0.972 -0.695,1.714 -1.34,2.225c-0.645,0.511 -1.433,0.766 -2.365,0.766c-0.964,0 -1.749,-0.196 -2.353,-0.589c-0.604,-0.393 -1.064,-0.961 -1.379,-1.706c-0.315,-0.745 -0.473,-1.544 -0.473,-2.399c0,-0.932 0.178,-1.745 0.534,-2.438c0.356,-0.694 0.863,-1.221 1.52,-1.581c0.657,-0.36 1.38,-0.54 2.17,-0.54c0.895,0 1.648,0.228 2.258,0.684c0.61,0.456 1.036,1.097 1.276,1.923l-1.166,0.275c-0.208,-0.651 -0.509,-1.125 -0.903,-1.422c-0.395,-0.297 -0.891,-0.446 -1.489,-0.446c-0.688,0 -1.262,0.165 -1.724,0.494c-0.462,0.33 -0.786,0.772 -0.974,1.328c-0.187,0.555 -0.281,1.128 -0.281,1.718c0,0.761 0.111,1.425 0.333,1.993c0.222,0.568 0.567,0.992 1.035,1.273c0.468,0.281 0.975,0.421 1.52,0.421c0.663,0 1.225,-0.191 1.685,-0.574c0.46,-0.382 0.771,-0.95 0.934,-1.703Z" style="fill:#ae916c;fill-rule:nonzero;"/><path d="M318.729,100.777l0,-7.892l-2.948,0l0,-1.056l7.092,0l0,1.056l-2.96,0l0,7.892l-1.184,0Z" style="fill:#ae916c;fill-rule:nonzero;"/><path d="M333.234,91.829l1.184,0l0,5.17c0,0.899 -0.102,1.613 -0.305,2.142c-0.203,0.529 -0.571,0.959 -1.102,1.291c-0.531,0.332 -1.228,0.497 -2.09,0.497c-0.838,0 -1.524,-0.144 -2.057,-0.433c-0.533,-0.289 -0.913,-0.707 -1.141,-1.254c-0.228,-0.547 -0.342,-1.295 -0.342,-2.243l0,-5.17l1.184,0l0,5.164c0,0.777 0.072,1.35 0.217,1.718c0.144,0.368 0.393,0.652 0.745,0.851c0.352,0.199 0.782,0.299 1.291,0.299c0.871,0 1.491,-0.197 1.862,-0.592c0.37,-0.395 0.555,-1.154 0.555,-2.277l0,-5.164Z" style="fill:#ae916c;fill-rule:nonzero;"/><path d="M339.683,100.777l0,-8.948l3.967,0c0.798,0 1.404,0.08 1.819,0.241c0.415,0.161 0.747,0.445 0.995,0.851c0.248,0.407 0.372,0.857 0.372,1.349c0,0.635 -0.205,1.17 -0.616,1.605c-0.411,0.435 -1.046,0.712 -1.904,0.83c0.313,0.151 0.551,0.299 0.714,0.446c0.346,0.317 0.673,0.714 0.983,1.19l1.556,2.435l-1.489,0l-1.184,-1.862c-0.346,-0.537 -0.631,-0.948 -0.854,-1.233c-0.224,-0.285 -0.424,-0.484 -0.601,-0.598c-0.177,-0.114 -0.357,-0.193 -0.54,-0.238c-0.134,-0.028 -0.354,-0.043 -0.659,-0.043l-1.373,0l0,3.973l-1.184,0Zm1.184,-4.999l2.545,0c0.541,0 0.964,-0.056 1.27,-0.168c0.305,-0.112 0.537,-0.291 0.696,-0.537c0.159,-0.246 0.238,-0.514 0.238,-0.803c0,-0.423 -0.154,-0.771 -0.461,-1.044c-0.307,-0.273 -0.792,-0.409 -1.456,-0.409l-2.832,0l0,2.96Z" style="fill:#ae916c;fill-rule:nonzero;"/><path d="M351.991,100.777l0,-8.948l6.47,0l0,1.056l-5.286,0l0,2.74l4.95,0l0,1.05l-4.95,0l0,3.046l5.493,0l0,1.056l-6.677,0Z" style="fill:#ae916c;fill-rule:nonzero;"/><path d="M375.301,99.721c-0.362,0.403 -0.757,0.705 -1.184,0.906c-0.427,0.201 -0.889,0.302 -1.385,0.302c-0.916,0 -1.642,-0.309 -2.179,-0.928c-0.435,-0.505 -0.653,-1.068 -0.653,-1.691c0,-0.553 0.178,-1.053 0.534,-1.498c0.356,-0.446 0.888,-0.837 1.596,-1.175c-0.403,-0.464 -0.671,-0.84 -0.806,-1.129c-0.134,-0.289 -0.201,-0.568 -0.201,-0.836c0,-0.537 0.211,-1.004 0.632,-1.401c0.421,-0.397 0.951,-0.595 1.59,-0.595c0.61,0 1.11,0.187 1.498,0.562c0.389,0.374 0.583,0.824 0.583,1.349c0,0.85 -0.564,1.577 -1.691,2.179l1.605,2.045c0.183,-0.358 0.326,-0.773 0.427,-1.245l1.141,0.244c-0.195,0.781 -0.46,1.424 -0.793,1.929c0.411,0.545 0.877,1.003 1.398,1.373l-0.739,0.873c-0.444,-0.285 -0.901,-0.706 -1.373,-1.263Zm-2.234,-4.663c0.476,-0.281 0.784,-0.527 0.925,-0.739c0.14,-0.212 0.211,-0.446 0.211,-0.702c0,-0.305 -0.097,-0.554 -0.29,-0.748c-0.193,-0.193 -0.434,-0.29 -0.723,-0.29c-0.297,0 -0.544,0.096 -0.742,0.287c-0.197,0.191 -0.296,0.425 -0.296,0.702c0,0.138 0.036,0.284 0.107,0.436c0.071,0.153 0.178,0.314 0.32,0.485l0.488,0.568Zm1.544,3.796l-2.014,-2.496c-0.594,0.354 -0.995,0.683 -1.202,0.986c-0.208,0.303 -0.311,0.603 -0.311,0.9c0,0.362 0.144,0.739 0.433,1.129c0.289,0.391 0.698,0.586 1.227,0.586c0.33,0 0.67,-0.103 1.022,-0.308c0.352,-0.205 0.634,-0.471 0.845,-0.797Z" style="fill:#ae916c;fill-rule:nonzero;"/><path d="M388.687,100.777l0,-8.948l3.082,0c0.696,0 1.227,0.043 1.593,0.128c0.513,0.118 0.95,0.332 1.312,0.641c0.472,0.399 0.825,0.908 1.059,1.529c0.234,0.621 0.351,1.33 0.351,2.127c0,0.68 -0.079,1.282 -0.238,1.807c-0.159,0.525 -0.362,0.959 -0.61,1.303c-0.248,0.344 -0.52,0.614 -0.815,0.812c-0.295,0.197 -0.651,0.347 -1.068,0.449c-0.417,0.102 -0.896,0.153 -1.437,0.153l-3.229,0Zm1.184,-1.056l1.91,0c0.59,0 1.053,-0.055 1.389,-0.165c0.336,-0.11 0.603,-0.264 0.803,-0.464c0.281,-0.281 0.499,-0.658 0.656,-1.132c0.157,-0.474 0.235,-1.049 0.235,-1.724c0,-0.936 -0.154,-1.655 -0.461,-2.158c-0.307,-0.503 -0.681,-0.839 -1.12,-1.01c-0.317,-0.122 -0.828,-0.183 -1.532,-0.183l-1.88,0l0,6.836Z" style="fill:#ae916c;fill-rule:nonzero;"/><path d="M401.014,100.777l0,-8.948l6.47,0l0,1.056l-5.286,0l0,2.74l4.95,0l0,1.05l-4.95,0l0,3.046l5.493,0l0,1.056l-6.677,0Z" style="fill:#ae916c;fill-rule:nonzero;"/><path d="M415.159,100.777l-3.467,-8.948l1.282,0l2.325,6.5c0.187,0.521 0.344,1.009 0.47,1.465c0.138,-0.488 0.299,-0.977 0.482,-1.465l2.417,-6.5l1.208,0l-3.503,8.948l-1.215,0Z" style="fill:#ae916c;fill-rule:nonzero;"/><path d="M424.239,100.777l0,-8.948l6.47,0l0,1.056l-5.286,0l0,2.74l4.95,0l0,1.05l-4.95,0l0,3.046l5.493,0l0,1.056l-6.677,0Z" style="fill:#ae916c;fill-rule:nonzero;"/><path d="M435.778,100.777l0,-8.948l1.184,0l0,7.892l4.407,0l0,1.056l-5.591,0Z" style="fill:#ae916c;fill-rule:nonzero;"/><path d="M445.693,96.419c0,-1.485 0.399,-2.648 1.196,-3.488c0.798,-0.84 1.827,-1.26 3.088,-1.26c0.826,0 1.571,0.197 2.234,0.592c0.663,0.395 1.169,0.945 1.517,1.651c0.348,0.706 0.522,1.507 0.522,2.402c0,0.907 -0.183,1.719 -0.549,2.435c-0.366,0.716 -0.885,1.258 -1.556,1.627c-0.671,0.368 -1.396,0.552 -2.173,0.552c-0.842,0 -1.595,-0.203 -2.258,-0.61c-0.663,-0.407 -1.166,-0.962 -1.508,-1.666c-0.342,-0.704 -0.513,-1.449 -0.513,-2.234Zm1.221,0.018c0,1.078 0.29,1.928 0.87,2.548c0.58,0.621 1.307,0.931 2.182,0.931c0.891,0 1.625,-0.313 2.2,-0.94c0.576,-0.627 0.864,-1.516 0.864,-2.667c0,-0.728 -0.123,-1.364 -0.369,-1.907c-0.246,-0.543 -0.606,-0.964 -1.08,-1.263c-0.474,-0.299 -1.006,-0.449 -1.596,-0.449c-0.838,0 -1.559,0.288 -2.164,0.864c-0.604,0.576 -0.906,1.537 -0.906,2.884Z" style="fill:#ae916c;fill-rule:nonzero;"/><path d="M459.051,100.777l0,-8.948l3.375,0c0.594,0 1.048,0.028 1.361,0.085c0.439,0.073 0.808,0.213 1.105,0.418c0.297,0.205 0.536,0.493 0.717,0.864c0.181,0.37 0.272,0.777 0.272,1.221c0,0.761 -0.242,1.405 -0.726,1.932c-0.484,0.527 -1.359,0.79 -2.625,0.79l-2.295,0l0,3.638l-1.184,0Zm1.184,-4.694l2.313,0c0.765,0 1.308,-0.142 1.63,-0.427c0.321,-0.285 0.482,-0.686 0.482,-1.202c0,-0.374 -0.095,-0.695 -0.284,-0.961c-0.189,-0.267 -0.438,-0.443 -0.748,-0.528c-0.199,-0.053 -0.568,-0.079 -1.105,-0.079l-2.289,0l0,3.198Z" style="fill:#ae916c;fill-rule:nonzero;"/><path d="M470.627,100.777l0,-8.948l1.782,0l2.118,6.335c0.195,0.59 0.338,1.031 0.427,1.324c0.102,-0.326 0.26,-0.804 0.476,-1.434l2.142,-6.226l1.593,0l0,8.948l-1.141,0l0,-7.489l-2.6,7.489l-1.068,0l-2.588,-7.617l0,7.617l-1.141,0Z" style="fill:#ae916c;fill-rule:nonzero;"/><path d="M484.376,100.777l0,-8.948l6.47,0l0,1.056l-5.286,0l0,2.74l4.95,0l0,1.05l-4.95,0l0,3.046l5.493,0l0,1.056l-6.677,0Z" style="fill:#ae916c;fill-rule:nonzero;"/><path d="M495.952,100.777l0,-8.948l1.215,0l4.7,7.025l0,-7.025l1.135,0l0,8.948l-1.215,0l-4.7,-7.031l0,7.031l-1.135,0Z" style="fill:#ae916c;fill-rule:nonzero;"/><path d="M510.543,100.777l0,-7.892l-2.948,0l0,-1.056l7.092,0l0,1.056l-2.96,0l0,7.892l-1.184,0Z" style="fill:#ae916c;fill-rule:nonzero;"/></svg>