<?xml version="1.0" encoding="UTF-8" standalone="no"?>
<!DOCTYPE svg PUBLIC "-//W3C//DTD SVG 1.1//EN" "http://www.w3.org/Graphics/SVG/1.1/DTD/svg11.dtd">
<svg width="100%" height="100%" viewBox="0 0 3123 596" version="1.1" xmlns="http://www.w3.org/2000/svg" xmlns:xlink="http://www.w3.org/1999/xlink" xml:space="preserve" xmlns:serif="http://www.serif.com/" style="fill-rule:evenodd;clip-rule:evenodd;stroke-linecap:round;stroke-linejoin:round;stroke-miterlimit:1.5;">
    <g transform="matrix(1,0,0,1,-305.925926,-712.906574)">
        <path d="M332.663,946.037L332.663,1146.174C332.663,1146.174 419.881,1191.228 498.323,1215.619C576.764,1240.011 625.888,1237.912 687.468,1221.25C749.049,1204.587 823.998,1136.374 823.998,1136.374C823.998,1136.374 871.557,1123.021 929.028,1076.312C981.799,1033.423 1047.663,1060.617 1047.663,1060.617C1047.663,1060.617 1041.838,1027.784 1007.116,985.179C992.798,967.611 998.579,953.716 965.611,924.085C945.781,906.263 922.215,884.603 855.043,875.296C786.472,865.795 620.75,945.304 573.099,958.5C525.447,971.696 332.663,946.037 332.663,946.037Z" style="fill:white;stroke:black;stroke-opacity:0;stroke-width:1px;"/>
    </g>
    <g transform="matrix(1,0,0,1,-307.392105,-712.173471)">
        <path d="M334.129,874.352L334.129,947.662C334.129,947.662 389.845,1026.104 505.675,1026.104C621.505,1026.104 654.079,976.93 708.744,939.598C768.049,899.096 817.976,870.686 871.492,871.419C925.009,872.152 941.137,890.48 941.137,890.48C941.137,890.48 934.539,790.778 839.969,773.917C745.399,757.056 612.708,922.003 487.347,919.071C361.987,916.138 334.129,874.352 334.129,874.352Z" style="fill:rgb(208,178,124);stroke:black;stroke-opacity:0;stroke-width:1px;"/>
    </g>
    <g transform="matrix(1,0,0,1,-305.925926,-709.974161)">
        <path d="M332.663,986.883L332.663,1168.692C332.663,1168.692 415.504,1211.945 491.013,1212.678C566.522,1213.411 651.873,1170.522 741,1089.517C853.948,986.862 897.884,968.555 939.671,969.288C981.457,970.021 1007.116,985.416 1007.116,985.416C1007.116,985.416 987.024,895.453 872.089,905.543C759.275,915.447 752.167,959.045 650.83,1011.258C543.323,1066.651 511.541,1058.049 460.224,1052.551C408.907,1047.053 332.663,986.883 332.663,986.883Z" style="fill:rgb(58,114,108);stroke:black;stroke-opacity:0;stroke-width:1px;"/>
    </g>
    <g transform="matrix(1,0,0,1,-306.395103,-711.721682)">
        <path d="M1036.191,1184.608L1036.191,1068.25C1036.191,1068.25 1018.59,1060.036 989.617,1059.46C950.979,1058.691 906.753,1073.693 849.099,1111.528C791.446,1149.363 763.437,1171.191 693.818,1209.522C668.669,1223.368 602.233,1246.681 602.233,1246.681C602.233,1246.681 737.658,1232.994 799.861,1210.723C874.865,1183.869 946.2,1179.097 968.918,1178.758C1009.215,1178.158 1036.191,1184.608 1036.191,1184.608Z" style="fill:rgb(122,168,156);stroke:black;stroke-opacity:0;stroke-width:1px;"/>
    </g>
    <g transform="matrix(1,0,0,1,-305.925926,-712.906574)">
        <path d="M697.132,1160.009C697.132,1160.009 742.622,1116.977 806.914,1078.574C878.5,1035.814 942.159,1036.775 942.159,1036.775C942.159,1036.775 876.819,1058.876 824.69,1088.423C811.983,1095.626 697.132,1160.009 697.132,1160.009Z" style="fill:rgb(122,168,156);stroke:black;stroke-opacity:0;stroke-width:1px;"/>
    </g>
    <g transform="matrix(1.070175,0,0,1.070175,-422.531475,-1385.162802)">
        <g transform="matrix(249.180527,0,0,249.180527,1157.485347,1604.833444)">
            <path d="M0.289,-0.463C0.289,-0.615 0.289,-0.643 0.291,-0.675C0.293,-0.71 0.301,-0.727 0.328,-0.732C0.34,-0.734 0.356,-0.735 0.367,-0.735C0.379,-0.735 0.385,-0.737 0.385,-0.744C0.385,-0.751 0.378,-0.753 0.364,-0.753C0.325,-0.753 0.252,-0.75 0.228,-0.75C0.201,-0.75 0.138,-0.753 0.091,-0.753C0.076,-0.753 0.069,-0.751 0.069,-0.744C0.069,-0.737 0.075,-0.735 0.086,-0.735C0.099,-0.735 0.111,-0.734 0.119,-0.732C0.152,-0.725 0.16,-0.709 0.162,-0.675C0.164,-0.643 0.164,-0.615 0.164,-0.463L0.164,-0.287C0.164,-0.195 0.164,-0.116 0.159,-0.074C0.155,-0.045 0.15,-0.023 0.13,-0.019C0.121,-0.017 0.109,-0.015 0.094,-0.015C0.082,-0.015 0.078,-0.012 0.078,-0.007C0.078,-0 0.085,0.003 0.098,0.003C0.118,0.003 0.144,0.001 0.167,0.001C0.191,-0 0.213,-0 0.224,-0C0.265,-0 0.301,0.001 0.346,0.003C0.391,0.004 0.443,0.006 0.515,0.006C0.567,0.006 0.572,0.001 0.578,-0.021C0.586,-0.05 0.593,-0.125 0.593,-0.136C0.593,-0.148 0.592,-0.153 0.585,-0.153C0.577,-0.153 0.575,-0.147 0.574,-0.138C0.572,-0.119 0.56,-0.091 0.548,-0.078C0.523,-0.051 0.484,-0.05 0.431,-0.05C0.353,-0.05 0.327,-0.057 0.31,-0.072C0.289,-0.09 0.289,-0.159 0.289,-0.287L0.289,-0.463Z" style="fill:rgb(54,110,105);fill-rule:nonzero;"/>
        </g>
        <g transform="matrix(249.180527,0,0,249.180527,1308.239566,1604.833444)">
            <path d="M0.144,-0.244C0.144,-0.162 0.144,-0.094 0.14,-0.059C0.137,-0.034 0.132,-0.022 0.114,-0.018C0.106,-0.016 0.096,-0.015 0.083,-0.015C0.072,-0.015 0.069,-0.01 0.069,-0.006C0.069,-0 0.075,0.003 0.086,0.003C0.121,0.003 0.181,-0 0.201,-0C0.225,-0 0.285,0.003 0.343,0.003C0.353,0.003 0.36,-0 0.36,-0.006C0.36,-0.01 0.356,-0.015 0.346,-0.015C0.333,-0.015 0.313,-0.016 0.301,-0.018C0.275,-0.022 0.269,-0.035 0.266,-0.058C0.262,-0.094 0.262,-0.162 0.262,-0.244L0.262,-0.394C0.262,-0.523 0.262,-0.547 0.264,-0.574C0.266,-0.604 0.273,-0.616 0.297,-0.62C0.307,-0.622 0.314,-0.623 0.323,-0.623C0.332,-0.623 0.337,-0.625 0.337,-0.633C0.337,-0.638 0.33,-0.64 0.319,-0.64C0.285,-0.64 0.228,-0.638 0.206,-0.638C0.181,-0.638 0.121,-0.64 0.088,-0.64C0.074,-0.64 0.067,-0.638 0.067,-0.633C0.067,-0.625 0.072,-0.623 0.081,-0.623C0.092,-0.623 0.103,-0.622 0.113,-0.619C0.132,-0.613 0.141,-0.603 0.143,-0.574C0.144,-0.547 0.144,-0.523 0.144,-0.394L0.144,-0.244Z" style="fill:rgb(54,110,105);fill-rule:nonzero;"/>
        </g>
        <g transform="matrix(249.180527,0,0,249.180527,1409.656041,1604.833444)">
            <path d="M0.261,-0.244C0.261,-0.166 0.261,-0.099 0.257,-0.063C0.254,-0.038 0.249,-0.022 0.231,-0.018C0.224,-0.016 0.213,-0.015 0.2,-0.015C0.189,-0.015 0.186,-0.01 0.186,-0.006C0.186,-0 0.192,0.003 0.203,0.003C0.238,0.003 0.298,-0 0.318,-0C0.343,-0 0.402,0.003 0.46,0.003C0.47,0.003 0.477,-0 0.477,-0.006C0.477,-0.01 0.473,-0.015 0.463,-0.015C0.45,-0.015 0.43,-0.016 0.418,-0.018C0.392,-0.022 0.387,-0.038 0.384,-0.062C0.38,-0.099 0.379,-0.166 0.379,-0.244L0.379,-0.588L0.49,-0.586C0.569,-0.585 0.592,-0.559 0.594,-0.537L0.595,-0.528C0.596,-0.515 0.598,-0.511 0.605,-0.511C0.61,-0.511 0.612,-0.516 0.613,-0.525C0.613,-0.547 0.615,-0.61 0.615,-0.628C0.615,-0.641 0.614,-0.646 0.608,-0.646C0.605,-0.646 0.598,-0.644 0.584,-0.642C0.571,-0.64 0.552,-0.638 0.524,-0.638L0.167,-0.638C0.138,-0.638 0.105,-0.639 0.079,-0.642C0.057,-0.645 0.048,-0.652 0.041,-0.652C0.036,-0.652 0.033,-0.647 0.031,-0.636C0.029,-0.629 0.012,-0.547 0.012,-0.533C0.012,-0.524 0.014,-0.519 0.02,-0.519C0.026,-0.519 0.028,-0.523 0.03,-0.53C0.032,-0.536 0.036,-0.547 0.045,-0.559C0.058,-0.578 0.079,-0.584 0.13,-0.585L0.261,-0.588L0.261,-0.244Z" style="fill:rgb(54,110,105);fill-rule:nonzero;"/>
        </g>
        <g transform="matrix(249.180527,0,0,249.180527,1564.147968,1604.833444)">
            <path d="M0.408,0.014C0.635,0.014 0.777,-0.139 0.777,-0.334C0.777,-0.529 0.639,-0.652 0.417,-0.652C0.15,-0.652 0.048,-0.464 0.048,-0.319C0.048,-0.168 0.152,0.014 0.408,0.014ZM0.444,-0.032C0.278,-0.032 0.178,-0.17 0.178,-0.345C0.178,-0.555 0.293,-0.607 0.391,-0.607C0.533,-0.607 0.646,-0.491 0.646,-0.303C0.646,-0.061 0.506,-0.032 0.444,-0.032Z" style="fill:rgb(54,110,105);fill-rule:nonzero;"/>
        </g>
        <g transform="matrix(249.180527,0,0,249.180527,1762.744848,1604.833444)">
            <path d="M0.144,-0.244C0.144,-0.166 0.144,-0.099 0.14,-0.063C0.137,-0.038 0.132,-0.022 0.114,-0.018C0.106,-0.016 0.096,-0.015 0.083,-0.015C0.072,-0.015 0.069,-0.01 0.069,-0.006C0.069,-0 0.075,0.003 0.086,0.003C0.121,0.003 0.177,-0 0.194,-0C0.207,-0 0.28,0.003 0.331,0.003C0.342,0.003 0.349,-0 0.349,-0.006C0.349,-0.01 0.345,-0.015 0.338,-0.015C0.327,-0.015 0.308,-0.016 0.295,-0.018C0.268,-0.022 0.264,-0.038 0.261,-0.063C0.257,-0.099 0.256,-0.165 0.256,-0.244L0.256,-0.256C0.256,-0.261 0.259,-0.263 0.263,-0.263L0.342,-0.261C0.348,-0.261 0.353,-0.26 0.358,-0.255C0.369,-0.242 0.406,-0.185 0.441,-0.139C0.49,-0.073 0.523,-0.033 0.561,-0.014C0.584,-0.002 0.608,0.003 0.657,0.003L0.741,0.003C0.752,0.003 0.758,0.001 0.758,-0.006C0.758,-0.01 0.754,-0.015 0.747,-0.015C0.74,-0.015 0.735,-0.015 0.726,-0.017C0.712,-0.02 0.681,-0.024 0.632,-0.073C0.579,-0.126 0.517,-0.203 0.439,-0.299C0.525,-0.368 0.561,-0.424 0.561,-0.487C0.561,-0.544 0.524,-0.587 0.499,-0.604C0.452,-0.635 0.388,-0.64 0.332,-0.64C0.305,-0.64 0.225,-0.638 0.195,-0.638C0.177,-0.638 0.121,-0.64 0.075,-0.64C0.062,-0.64 0.055,-0.638 0.055,-0.632C0.055,-0.626 0.061,-0.623 0.07,-0.623C0.083,-0.623 0.098,-0.622 0.105,-0.62C0.133,-0.612 0.141,-0.603 0.143,-0.574C0.144,-0.547 0.144,-0.523 0.144,-0.394L0.144,-0.244ZM0.256,-0.581C0.256,-0.588 0.258,-0.591 0.264,-0.593C0.273,-0.595 0.294,-0.596 0.316,-0.596C0.368,-0.596 0.45,-0.565 0.45,-0.445C0.45,-0.375 0.42,-0.338 0.393,-0.319C0.378,-0.308 0.366,-0.305 0.331,-0.305C0.309,-0.305 0.283,-0.307 0.264,-0.313C0.258,-0.316 0.256,-0.319 0.256,-0.328L0.256,-0.581Z" style="fill:rgb(54,110,105);fill-rule:nonzero;"/>
        </g>
        <g transform="matrix(249.180527,0,0,249.180527,1933.68269,1604.833444)">
            <path d="M0.389,-0.211C0.393,-0.211 0.396,-0.21 0.398,-0.205L0.466,-0.034C0.47,-0.024 0.464,-0.016 0.458,-0.015C0.449,-0.014 0.447,-0.011 0.447,-0.006C0.447,-0 0.457,-0 0.473,0.001C0.547,0.003 0.611,0.003 0.642,0.003C0.675,0.003 0.68,0.001 0.68,-0.006C0.68,-0.012 0.676,-0.015 0.668,-0.015C0.658,-0.015 0.648,-0.016 0.635,-0.018C0.619,-0.021 0.594,-0.032 0.56,-0.109C0.504,-0.238 0.357,-0.586 0.336,-0.633C0.327,-0.652 0.323,-0.66 0.31,-0.66C0.301,-0.66 0.294,-0.65 0.284,-0.626L0.054,-0.091C0.036,-0.048 0.021,-0.022 -0.019,-0.016C-0.027,-0.016 -0.037,-0.015 -0.045,-0.015C-0.052,-0.015 -0.055,-0.011 -0.055,-0.006C-0.055,0.001 -0.05,0.003 -0.039,0.003C0.007,0.003 0.054,-0 0.063,-0C0.091,-0 0.132,0.003 0.161,0.003C0.17,0.003 0.175,0.001 0.175,-0.006C0.175,-0.011 0.173,-0.015 0.162,-0.015L0.149,-0.015C0.122,-0.015 0.114,-0.024 0.114,-0.039C0.114,-0.049 0.118,-0.07 0.127,-0.091L0.174,-0.205C0.176,-0.21 0.177,-0.211 0.182,-0.211L0.389,-0.211ZM0.2,-0.258C0.197,-0.258 0.195,-0.26 0.197,-0.264L0.282,-0.479C0.283,-0.482 0.284,-0.487 0.287,-0.487C0.289,-0.487 0.29,-0.482 0.291,-0.479L0.374,-0.263C0.375,-0.26 0.374,-0.258 0.37,-0.258L0.2,-0.258Z" style="fill:rgb(54,110,105);fill-rule:nonzero;"/>
        </g>
        <g transform="matrix(249.180527,0,0,249.180527,2091.164783,1604.833444)">
            <path d="M0.262,-0.394C0.262,-0.523 0.262,-0.547 0.264,-0.574C0.266,-0.604 0.273,-0.616 0.297,-0.62C0.307,-0.622 0.321,-0.623 0.331,-0.623C0.342,-0.623 0.347,-0.626 0.347,-0.632C0.347,-0.638 0.341,-0.64 0.328,-0.64C0.294,-0.64 0.222,-0.638 0.201,-0.638C0.177,-0.638 0.121,-0.64 0.08,-0.64C0.067,-0.64 0.061,-0.638 0.061,-0.632C0.061,-0.626 0.066,-0.623 0.076,-0.623C0.087,-0.623 0.098,-0.622 0.105,-0.62C0.133,-0.612 0.141,-0.603 0.143,-0.574C0.144,-0.547 0.144,-0.523 0.144,-0.394L0.144,-0.244C0.144,-0.166 0.144,-0.099 0.14,-0.063C0.137,-0.038 0.132,-0.022 0.114,-0.018C0.106,-0.016 0.096,-0.015 0.083,-0.015C0.072,-0.015 0.069,-0.01 0.069,-0.006C0.069,-0 0.075,0.003 0.086,0.003C0.104,0.003 0.126,0.002 0.147,0.001C0.168,0.001 0.187,-0 0.197,-0C0.233,-0 0.27,0.001 0.314,0.002C0.358,0.004 0.409,0.005 0.472,0.005C0.518,0.005 0.522,0.001 0.528,-0.018C0.535,-0.043 0.541,-0.106 0.541,-0.116C0.541,-0.126 0.539,-0.135 0.533,-0.135C0.526,-0.135 0.524,-0.13 0.523,-0.122C0.521,-0.106 0.512,-0.082 0.501,-0.071C0.479,-0.048 0.445,-0.047 0.398,-0.047C0.33,-0.047 0.296,-0.052 0.281,-0.065C0.262,-0.081 0.262,-0.135 0.262,-0.244L0.262,-0.394Z" style="fill:rgb(54,110,105);fill-rule:nonzero;"/>
        </g>
        <g transform="matrix(249.180527,0,0,249.180527,2303.466592,1604.833444)">
            <path d="M0.255,0.017C0.308,0.017 0.364,0.008 0.414,-0.024C0.486,-0.071 0.508,-0.14 0.508,-0.198C0.508,-0.293 0.465,-0.362 0.344,-0.453L0.316,-0.474C0.233,-0.537 0.21,-0.572 0.21,-0.618C0.21,-0.678 0.255,-0.721 0.329,-0.721C0.394,-0.721 0.423,-0.691 0.438,-0.672C0.459,-0.646 0.464,-0.615 0.464,-0.606C0.464,-0.594 0.467,-0.588 0.474,-0.588C0.482,-0.588 0.485,-0.596 0.485,-0.618C0.485,-0.696 0.489,-0.725 0.489,-0.738C0.489,-0.745 0.484,-0.748 0.475,-0.75C0.449,-0.757 0.407,-0.767 0.342,-0.767C0.203,-0.767 0.111,-0.688 0.111,-0.578C0.111,-0.497 0.149,-0.427 0.259,-0.341L0.305,-0.305C0.388,-0.24 0.403,-0.194 0.403,-0.145C0.403,-0.092 0.359,-0.031 0.269,-0.031C0.207,-0.031 0.148,-0.058 0.126,-0.132C0.121,-0.149 0.117,-0.17 0.117,-0.183C0.117,-0.191 0.116,-0.2 0.107,-0.2C0.099,-0.2 0.096,-0.189 0.095,-0.174C0.094,-0.158 0.09,-0.098 0.09,-0.043C0.09,-0.021 0.093,-0.016 0.109,-0.009C0.152,0.01 0.197,0.017 0.255,0.017Z" style="fill:rgb(207,174,117);fill-rule:nonzero;"/>
        </g>
        <g transform="matrix(249.180527,0,0,249.180527,2448.489659,1604.833444)">
            <path d="M0.261,-0.244C0.261,-0.166 0.261,-0.099 0.257,-0.063C0.254,-0.038 0.249,-0.022 0.231,-0.018C0.224,-0.016 0.213,-0.015 0.2,-0.015C0.189,-0.015 0.186,-0.01 0.186,-0.006C0.186,-0 0.192,0.003 0.203,0.003C0.238,0.003 0.298,-0 0.318,-0C0.343,-0 0.402,0.003 0.46,0.003C0.47,0.003 0.477,-0 0.477,-0.006C0.477,-0.01 0.473,-0.015 0.463,-0.015C0.45,-0.015 0.43,-0.016 0.418,-0.018C0.392,-0.022 0.387,-0.038 0.384,-0.062C0.38,-0.099 0.379,-0.166 0.379,-0.244L0.379,-0.588L0.49,-0.586C0.569,-0.585 0.592,-0.559 0.594,-0.537L0.595,-0.528C0.596,-0.515 0.598,-0.511 0.605,-0.511C0.61,-0.511 0.612,-0.516 0.613,-0.525C0.613,-0.547 0.615,-0.61 0.615,-0.628C0.615,-0.641 0.614,-0.646 0.608,-0.646C0.605,-0.646 0.598,-0.644 0.584,-0.642C0.571,-0.64 0.552,-0.638 0.524,-0.638L0.167,-0.638C0.138,-0.638 0.105,-0.639 0.079,-0.642C0.057,-0.645 0.048,-0.652 0.041,-0.652C0.036,-0.652 0.033,-0.647 0.031,-0.636C0.029,-0.629 0.012,-0.547 0.012,-0.533C0.012,-0.524 0.014,-0.519 0.02,-0.519C0.026,-0.519 0.028,-0.523 0.03,-0.53C0.032,-0.536 0.036,-0.547 0.045,-0.559C0.058,-0.578 0.079,-0.584 0.13,-0.585L0.261,-0.588L0.261,-0.244Z" style="fill:rgb(207,174,117);fill-rule:nonzero;"/>
        </g>
        <g transform="matrix(249.180527,0,0,249.180527,2606.220933,1604.833444)">
            <path d="M0.106,-0.269C0.106,-0.146 0.141,-0.083 0.186,-0.044C0.25,0.012 0.341,0.014 0.387,0.014C0.444,0.014 0.511,0.005 0.573,-0.047C0.647,-0.108 0.657,-0.208 0.657,-0.303L0.657,-0.394C0.657,-0.523 0.658,-0.547 0.659,-0.574C0.661,-0.604 0.667,-0.616 0.691,-0.62C0.702,-0.622 0.707,-0.623 0.717,-0.623C0.727,-0.623 0.732,-0.626 0.732,-0.632C0.732,-0.638 0.726,-0.64 0.714,-0.64C0.68,-0.64 0.621,-0.638 0.611,-0.638C0.61,-0.638 0.551,-0.64 0.506,-0.64C0.494,-0.64 0.488,-0.638 0.488,-0.632C0.488,-0.626 0.493,-0.623 0.503,-0.623C0.513,-0.623 0.528,-0.622 0.535,-0.62C0.563,-0.612 0.57,-0.603 0.572,-0.574C0.573,-0.547 0.574,-0.523 0.574,-0.394L0.574,-0.287C0.574,-0.2 0.572,-0.126 0.523,-0.08C0.488,-0.046 0.443,-0.035 0.405,-0.035C0.375,-0.035 0.333,-0.038 0.294,-0.069C0.251,-0.103 0.227,-0.151 0.227,-0.275L0.227,-0.394C0.227,-0.523 0.227,-0.547 0.229,-0.574C0.231,-0.604 0.238,-0.616 0.261,-0.62C0.272,-0.622 0.277,-0.623 0.287,-0.623C0.296,-0.623 0.301,-0.626 0.301,-0.632C0.301,-0.638 0.295,-0.64 0.282,-0.64C0.25,-0.64 0.191,-0.638 0.169,-0.638C0.143,-0.638 0.084,-0.64 0.037,-0.64C0.024,-0.64 0.018,-0.638 0.018,-0.632C0.018,-0.626 0.023,-0.623 0.033,-0.623C0.045,-0.623 0.06,-0.622 0.067,-0.62C0.095,-0.612 0.103,-0.604 0.105,-0.574C0.107,-0.547 0.106,-0.523 0.106,-0.394L0.106,-0.269Z" style="fill:rgb(207,174,117);fill-rule:nonzero;"/>
        </g>
        <g transform="matrix(249.180527,0,0,249.180527,2790.614523,1604.833444)">
            <path d="M0.144,-0.244C0.144,-0.166 0.144,-0.099 0.14,-0.063C0.137,-0.038 0.132,-0.022 0.114,-0.018C0.106,-0.016 0.096,-0.015 0.083,-0.015C0.072,-0.015 0.069,-0.01 0.069,-0.006C0.069,-0 0.075,0.003 0.086,0.003C0.104,0.003 0.126,0.002 0.147,0.001C0.168,0.001 0.187,-0 0.197,-0C0.219,-0 0.251,0.002 0.286,0.005C0.321,0.007 0.359,0.01 0.391,0.01C0.553,0.01 0.646,-0.05 0.686,-0.09C0.736,-0.139 0.782,-0.22 0.782,-0.327C0.782,-0.428 0.743,-0.499 0.699,-0.543C0.603,-0.64 0.455,-0.64 0.345,-0.64C0.292,-0.64 0.229,-0.638 0.202,-0.638C0.177,-0.638 0.121,-0.64 0.075,-0.64C0.062,-0.64 0.055,-0.638 0.055,-0.632C0.055,-0.626 0.061,-0.623 0.07,-0.623C0.083,-0.623 0.098,-0.622 0.105,-0.62C0.133,-0.612 0.141,-0.603 0.143,-0.574C0.144,-0.547 0.144,-0.523 0.144,-0.394L0.144,-0.244ZM0.262,-0.407C0.262,-0.474 0.262,-0.544 0.263,-0.573C0.263,-0.583 0.266,-0.587 0.274,-0.59C0.281,-0.594 0.31,-0.596 0.328,-0.596C0.397,-0.596 0.493,-0.587 0.574,-0.515C0.613,-0.481 0.656,-0.411 0.656,-0.303C0.656,-0.215 0.638,-0.139 0.581,-0.092C0.528,-0.048 0.469,-0.034 0.389,-0.034C0.32,-0.034 0.285,-0.052 0.274,-0.068C0.267,-0.077 0.265,-0.107 0.264,-0.128C0.263,-0.145 0.262,-0.21 0.262,-0.3L0.262,-0.407Z" style="fill:rgb(207,174,117);fill-rule:nonzero;"/>
        </g>
        <g transform="matrix(249.180527,0,0,249.180527,2995.191736,1604.833444)">
            <path d="M0.144,-0.244C0.144,-0.162 0.144,-0.094 0.14,-0.059C0.137,-0.034 0.132,-0.022 0.114,-0.018C0.106,-0.016 0.096,-0.015 0.083,-0.015C0.072,-0.015 0.069,-0.01 0.069,-0.006C0.069,-0 0.075,0.003 0.086,0.003C0.121,0.003 0.181,-0 0.201,-0C0.225,-0 0.285,0.003 0.343,0.003C0.353,0.003 0.36,-0 0.36,-0.006C0.36,-0.01 0.356,-0.015 0.346,-0.015C0.333,-0.015 0.313,-0.016 0.301,-0.018C0.275,-0.022 0.269,-0.035 0.266,-0.058C0.262,-0.094 0.262,-0.162 0.262,-0.244L0.262,-0.394C0.262,-0.523 0.262,-0.547 0.264,-0.574C0.266,-0.604 0.273,-0.616 0.297,-0.62C0.307,-0.622 0.314,-0.623 0.323,-0.623C0.332,-0.623 0.337,-0.625 0.337,-0.633C0.337,-0.638 0.33,-0.64 0.319,-0.64C0.285,-0.64 0.228,-0.638 0.206,-0.638C0.181,-0.638 0.121,-0.64 0.088,-0.64C0.074,-0.64 0.067,-0.638 0.067,-0.633C0.067,-0.625 0.072,-0.623 0.081,-0.623C0.092,-0.623 0.103,-0.622 0.113,-0.619C0.132,-0.613 0.141,-0.603 0.143,-0.574C0.144,-0.547 0.144,-0.523 0.144,-0.394L0.144,-0.244Z" style="fill:rgb(207,174,117);fill-rule:nonzero;"/>
        </g>
        <g transform="matrix(249.180527,0,0,249.180527,3094.116405,1604.833444)">
            <path d="M0.408,0.014C0.635,0.014 0.777,-0.139 0.777,-0.334C0.777,-0.529 0.639,-0.652 0.417,-0.652C0.15,-0.652 0.048,-0.464 0.048,-0.319C0.048,-0.168 0.152,0.014 0.408,0.014ZM0.444,-0.032C0.278,-0.032 0.178,-0.17 0.178,-0.345C0.178,-0.555 0.293,-0.607 0.391,-0.607C0.533,-0.607 0.646,-0.491 0.646,-0.303C0.646,-0.061 0.506,-0.032 0.444,-0.032Z" style="fill:rgb(207,174,117);fill-rule:nonzero;"/>
        </g>
    </g>
    <g transform="matrix(1,0,0,1,-432.957808,-1172.730441)">
        <g transform="matrix(125,0,0,125,1267.720836,1638.392155)">
            <path d="M-0.001,-0L0.273,-0.716L0.375,-0.716L0.668,-0L0.561,-0L0.477,-0.217L0.178,-0.217L0.099,-0L-0.001,-0ZM0.205,-0.294L0.448,-0.294L0.373,-0.492C0.35,-0.552 0.333,-0.602 0.322,-0.641C0.313,-0.595 0.3,-0.549 0.284,-0.504L0.205,-0.294Z" style="fill:rgb(207,174,117);fill-rule:nonzero;"/>
        </g>
        <g transform="matrix(125,0,0,125,1351.09486,1638.392155)">
            <path d="M0.079,-0L0.079,-0.716L0.396,-0.716C0.46,-0.716 0.508,-0.709 0.542,-0.697C0.575,-0.684 0.601,-0.661 0.621,-0.628C0.641,-0.596 0.651,-0.56 0.651,-0.521C0.651,-0.47 0.634,-0.427 0.602,-0.392C0.569,-0.357 0.518,-0.335 0.449,-0.326C0.474,-0.314 0.493,-0.302 0.506,-0.29C0.534,-0.265 0.56,-0.233 0.585,-0.195L0.709,-0L0.59,-0L0.496,-0.149C0.468,-0.192 0.445,-0.225 0.427,-0.248C0.409,-0.27 0.393,-0.286 0.379,-0.295C0.365,-0.305 0.351,-0.311 0.336,-0.314C0.325,-0.317 0.308,-0.318 0.283,-0.318L0.173,-0.318L0.173,-0L0.079,-0ZM0.173,-0.4L0.377,-0.4C0.42,-0.4 0.454,-0.404 0.479,-0.413C0.503,-0.422 0.521,-0.437 0.534,-0.456C0.547,-0.476 0.553,-0.497 0.553,-0.521C0.553,-0.554 0.541,-0.582 0.516,-0.604C0.492,-0.626 0.453,-0.637 0.4,-0.637L0.173,-0.637L0.173,-0.4Z" style="fill:rgb(207,174,117);fill-rule:nonzero;"/>
        </g>
        <g transform="matrix(125,0,0,125,1441.365856,1638.392155)">
            <path d="M0.588,-0.251L0.683,-0.227C0.663,-0.149 0.627,-0.09 0.575,-0.049C0.524,-0.008 0.461,0.012 0.386,0.012C0.309,0.012 0.246,-0.003 0.198,-0.035C0.15,-0.066 0.113,-0.112 0.088,-0.171C0.062,-0.231 0.05,-0.295 0.05,-0.363C0.05,-0.438 0.064,-0.503 0.093,-0.558C0.121,-0.614 0.162,-0.656 0.214,-0.685C0.267,-0.714 0.325,-0.728 0.388,-0.728C0.459,-0.728 0.52,-0.71 0.568,-0.673C0.617,-0.637 0.651,-0.586 0.67,-0.52L0.577,-0.498C0.561,-0.55 0.536,-0.588 0.505,-0.611C0.473,-0.635 0.434,-0.647 0.386,-0.647C0.331,-0.647 0.285,-0.634 0.248,-0.607C0.211,-0.581 0.185,-0.546 0.17,-0.501C0.155,-0.457 0.147,-0.411 0.147,-0.364C0.147,-0.303 0.156,-0.25 0.174,-0.204C0.192,-0.159 0.219,-0.125 0.257,-0.103C0.294,-0.08 0.335,-0.069 0.378,-0.069C0.431,-0.069 0.476,-0.084 0.513,-0.115C0.55,-0.145 0.575,-0.191 0.588,-0.251Z" style="fill:rgb(207,174,117);fill-rule:nonzero;"/>
        </g>
        <g transform="matrix(125,0,0,125,1531.636852,1638.392155)">
            <path d="M0.08,-0L0.08,-0.716L0.175,-0.716L0.175,-0.422L0.547,-0.422L0.547,-0.716L0.642,-0.716L0.642,-0L0.547,-0L0.547,-0.337L0.175,-0.337L0.175,-0L0.08,-0Z" style="fill:rgb(207,174,117);fill-rule:nonzero;"/>
        </g>
        <g transform="matrix(125,0,0,125,1621.907848,1638.392155)">
            <rect x="0.093" y="-0.716" width="0.095" height="0.716" style="fill:rgb(207,174,117);fill-rule:nonzero;"/>
        </g>
        <g transform="matrix(125,0,0,125,1656.636852,1638.392155)">
            <path d="M0.259,-0L0.259,-0.631L0.023,-0.631L0.023,-0.716L0.591,-0.716L0.591,-0.631L0.354,-0.631L0.354,-0L0.259,-0Z" style="fill:rgb(207,174,117);fill-rule:nonzero;"/>
        </g>
        <g transform="matrix(125,0,0,125,1732.991833,1638.392155)">
            <path d="M0.079,-0L0.079,-0.716L0.597,-0.716L0.597,-0.631L0.174,-0.631L0.174,-0.412L0.57,-0.412L0.57,-0.328L0.174,-0.328L0.174,-0.084L0.613,-0.084L0.613,-0L0.079,-0Z" style="fill:rgb(207,174,117);fill-rule:nonzero;"/>
        </g>
        <g transform="matrix(125,0,0,125,1816.365856,1638.392155)">
            <path d="M0.588,-0.251L0.683,-0.227C0.663,-0.149 0.627,-0.09 0.575,-0.049C0.524,-0.008 0.461,0.012 0.386,0.012C0.309,0.012 0.246,-0.003 0.198,-0.035C0.15,-0.066 0.113,-0.112 0.088,-0.171C0.062,-0.231 0.05,-0.295 0.05,-0.363C0.05,-0.438 0.064,-0.503 0.093,-0.558C0.121,-0.614 0.162,-0.656 0.214,-0.685C0.267,-0.714 0.325,-0.728 0.388,-0.728C0.459,-0.728 0.52,-0.71 0.568,-0.673C0.617,-0.637 0.651,-0.586 0.67,-0.52L0.577,-0.498C0.561,-0.55 0.536,-0.588 0.505,-0.611C0.473,-0.635 0.434,-0.647 0.386,-0.647C0.331,-0.647 0.285,-0.634 0.248,-0.607C0.211,-0.581 0.185,-0.546 0.17,-0.501C0.155,-0.457 0.147,-0.411 0.147,-0.364C0.147,-0.303 0.156,-0.25 0.174,-0.204C0.192,-0.159 0.219,-0.125 0.257,-0.103C0.294,-0.08 0.335,-0.069 0.378,-0.069C0.431,-0.069 0.476,-0.084 0.513,-0.115C0.55,-0.145 0.575,-0.191 0.588,-0.251Z" style="fill:rgb(207,174,117);fill-rule:nonzero;"/>
        </g>
        <g transform="matrix(125,0,0,125,1906.636852,1638.392155)">
            <path d="M0.259,-0L0.259,-0.631L0.023,-0.631L0.023,-0.716L0.591,-0.716L0.591,-0.631L0.354,-0.631L0.354,-0L0.259,-0Z" style="fill:rgb(207,174,117);fill-rule:nonzero;"/>
        </g>
        <g transform="matrix(125,0,0,125,1982.991833,1638.392155)">
            <path d="M0.547,-0.716L0.642,-0.716L0.642,-0.302C0.642,-0.23 0.633,-0.173 0.617,-0.131C0.601,-0.089 0.572,-0.054 0.529,-0.028C0.487,-0.001 0.431,0.012 0.362,0.012C0.295,0.012 0.24,0.001 0.197,-0.022C0.155,-0.046 0.124,-0.079 0.106,-0.123C0.088,-0.167 0.079,-0.226 0.079,-0.302L0.079,-0.716L0.173,-0.716L0.173,-0.303C0.173,-0.241 0.179,-0.195 0.191,-0.165C0.202,-0.136 0.222,-0.113 0.25,-0.097C0.278,-0.081 0.313,-0.073 0.354,-0.073C0.423,-0.073 0.473,-0.089 0.502,-0.121C0.532,-0.152 0.547,-0.213 0.547,-0.303L0.547,-0.716Z" style="fill:rgb(207,174,117);fill-rule:nonzero;"/>
        </g>
        <g transform="matrix(125,0,0,125,2073.262829,1638.392155)">
            <path d="M0.079,-0L0.079,-0.716L0.396,-0.716C0.46,-0.716 0.508,-0.709 0.542,-0.697C0.575,-0.684 0.601,-0.661 0.621,-0.628C0.641,-0.596 0.651,-0.56 0.651,-0.521C0.651,-0.47 0.634,-0.427 0.602,-0.392C0.569,-0.357 0.518,-0.335 0.449,-0.326C0.474,-0.314 0.493,-0.302 0.506,-0.29C0.534,-0.265 0.56,-0.233 0.585,-0.195L0.709,-0L0.59,-0L0.496,-0.149C0.468,-0.192 0.445,-0.225 0.427,-0.248C0.409,-0.27 0.393,-0.286 0.379,-0.295C0.365,-0.305 0.351,-0.311 0.336,-0.314C0.325,-0.317 0.308,-0.318 0.283,-0.318L0.173,-0.318L0.173,-0L0.079,-0ZM0.173,-0.4L0.377,-0.4C0.42,-0.4 0.454,-0.404 0.479,-0.413C0.503,-0.422 0.521,-0.437 0.534,-0.456C0.547,-0.476 0.553,-0.497 0.553,-0.521C0.553,-0.554 0.541,-0.582 0.516,-0.604C0.492,-0.626 0.453,-0.637 0.4,-0.637L0.173,-0.637L0.173,-0.4Z" style="fill:rgb(207,174,117);fill-rule:nonzero;"/>
        </g>
        <g transform="matrix(125,0,0,125,2163.533825,1638.392155)">
            <path d="M0.079,-0L0.079,-0.716L0.597,-0.716L0.597,-0.631L0.174,-0.631L0.174,-0.412L0.57,-0.412L0.57,-0.328L0.174,-0.328L0.174,-0.084L0.613,-0.084L0.613,-0L0.079,-0Z" style="fill:rgb(207,174,117);fill-rule:nonzero;"/>
        </g>
        <g transform="matrix(125,0,0,125,2281.636852,1638.392155)">
            <path d="M0.475,-0.084C0.446,-0.052 0.415,-0.028 0.38,-0.012C0.346,0.004 0.309,0.012 0.27,0.012C0.196,0.012 0.138,-0.013 0.095,-0.062C0.06,-0.102 0.043,-0.147 0.043,-0.197C0.043,-0.242 0.057,-0.281 0.086,-0.317C0.114,-0.353 0.157,-0.384 0.213,-0.411C0.181,-0.448 0.16,-0.478 0.149,-0.501C0.138,-0.525 0.133,-0.547 0.133,-0.568C0.133,-0.611 0.15,-0.649 0.183,-0.68C0.217,-0.712 0.259,-0.728 0.311,-0.728C0.359,-0.728 0.399,-0.713 0.43,-0.683C0.462,-0.653 0.477,-0.617 0.477,-0.575C0.477,-0.507 0.432,-0.449 0.342,-0.401L0.47,-0.237C0.485,-0.266 0.496,-0.299 0.504,-0.337L0.596,-0.317C0.58,-0.255 0.559,-0.203 0.532,-0.163C0.565,-0.119 0.602,-0.083 0.644,-0.053L0.585,0.017C0.549,-0.006 0.513,-0.04 0.475,-0.084ZM0.296,-0.458C0.334,-0.48 0.359,-0.5 0.37,-0.517C0.382,-0.534 0.387,-0.552 0.387,-0.573C0.387,-0.597 0.379,-0.617 0.364,-0.633C0.349,-0.648 0.329,-0.656 0.306,-0.656C0.282,-0.656 0.263,-0.648 0.247,-0.633C0.231,-0.618 0.223,-0.599 0.223,-0.577C0.223,-0.566 0.226,-0.554 0.232,-0.542C0.237,-0.53 0.246,-0.517 0.257,-0.503L0.296,-0.458ZM0.42,-0.154L0.259,-0.354C0.211,-0.325 0.179,-0.299 0.163,-0.275C0.146,-0.25 0.138,-0.226 0.138,-0.203C0.138,-0.174 0.149,-0.144 0.172,-0.112C0.195,-0.081 0.228,-0.065 0.271,-0.065C0.297,-0.065 0.324,-0.074 0.352,-0.09C0.38,-0.107 0.403,-0.128 0.42,-0.154Z" style="fill:rgb(207,174,117);fill-rule:nonzero;"/>
        </g>
        <g transform="matrix(125,0,0,125,2399.739879,1638.392155)">
            <path d="M0.077,-0L0.077,-0.716L0.324,-0.716C0.379,-0.716 0.422,-0.712 0.451,-0.706C0.492,-0.696 0.527,-0.679 0.556,-0.654C0.594,-0.622 0.622,-0.582 0.641,-0.532C0.66,-0.482 0.669,-0.426 0.669,-0.362C0.669,-0.307 0.663,-0.259 0.65,-0.217C0.637,-0.175 0.621,-0.141 0.601,-0.113C0.581,-0.086 0.559,-0.064 0.536,-0.048C0.512,-0.032 0.484,-0.02 0.45,-0.012C0.417,-0.004 0.379,-0 0.335,-0L0.077,-0ZM0.172,-0.084L0.325,-0.084C0.372,-0.084 0.409,-0.089 0.436,-0.098C0.463,-0.106 0.484,-0.119 0.5,-0.135C0.522,-0.157 0.54,-0.187 0.552,-0.225C0.565,-0.263 0.571,-0.309 0.571,-0.363C0.571,-0.438 0.559,-0.496 0.534,-0.536C0.51,-0.576 0.48,-0.603 0.445,-0.617C0.419,-0.626 0.379,-0.631 0.322,-0.631L0.172,-0.631L0.172,-0.084Z" style="fill:rgb(207,174,117);fill-rule:nonzero;"/>
        </g>
        <g transform="matrix(125,0,0,125,2490.010876,1638.392155)">
            <path d="M0.079,-0L0.079,-0.716L0.597,-0.716L0.597,-0.631L0.174,-0.631L0.174,-0.412L0.57,-0.412L0.57,-0.328L0.174,-0.328L0.174,-0.084L0.613,-0.084L0.613,-0L0.079,-0Z" style="fill:rgb(207,174,117);fill-rule:nonzero;"/>
        </g>
        <g transform="matrix(125,0,0,125,2573.384899,1638.392155)">
            <path d="M0.282,-0L0.004,-0.716L0.107,-0.716L0.293,-0.196C0.308,-0.154 0.32,-0.115 0.331,-0.079C0.342,-0.118 0.354,-0.157 0.369,-0.196L0.562,-0.716L0.659,-0.716L0.379,-0L0.282,-0Z" style="fill:rgb(207,174,117);fill-rule:nonzero;"/>
        </g>
        <g transform="matrix(125,0,0,125,2656.758922,1638.392155)">
            <path d="M0.079,-0L0.079,-0.716L0.597,-0.716L0.597,-0.631L0.174,-0.631L0.174,-0.412L0.57,-0.412L0.57,-0.328L0.174,-0.328L0.174,-0.084L0.613,-0.084L0.613,-0L0.079,-0Z" style="fill:rgb(207,174,117);fill-rule:nonzero;"/>
        </g>
        <g transform="matrix(125,0,0,125,2740.132946,1638.392155)">
            <path d="M0.073,-0L0.073,-0.716L0.168,-0.716L0.168,-0.084L0.521,-0.084L0.521,-0L0.073,-0Z" style="fill:rgb(207,174,117);fill-rule:nonzero;"/>
        </g>
        <g transform="matrix(125,0,0,125,2809.651989,1638.392155)">
            <path d="M0.048,-0.349C0.048,-0.467 0.08,-0.56 0.144,-0.628C0.208,-0.695 0.29,-0.729 0.391,-0.729C0.457,-0.729 0.517,-0.713 0.57,-0.681C0.623,-0.65 0.663,-0.606 0.691,-0.549C0.719,-0.493 0.733,-0.429 0.733,-0.357C0.733,-0.284 0.718,-0.219 0.689,-0.162C0.66,-0.105 0.618,-0.061 0.564,-0.032C0.511,-0.003 0.453,0.012 0.391,0.012C0.323,0.012 0.263,-0.004 0.21,-0.037C0.157,-0.069 0.117,-0.114 0.089,-0.17C0.062,-0.226 0.048,-0.286 0.048,-0.349ZM0.146,-0.347C0.146,-0.261 0.169,-0.193 0.216,-0.143C0.262,-0.094 0.32,-0.069 0.39,-0.069C0.461,-0.069 0.52,-0.094 0.566,-0.144C0.612,-0.194 0.635,-0.265 0.635,-0.357C0.635,-0.416 0.625,-0.467 0.606,-0.51C0.586,-0.553 0.557,-0.587 0.519,-0.611C0.481,-0.635 0.439,-0.647 0.392,-0.647C0.325,-0.647 0.267,-0.624 0.219,-0.578C0.17,-0.532 0.146,-0.455 0.146,-0.347Z" style="fill:rgb(207,174,117);fill-rule:nonzero;"/>
        </g>
        <g transform="matrix(125,0,0,125,2906.880993,1638.392155)">
            <path d="M0.077,-0L0.077,-0.716L0.347,-0.716C0.395,-0.716 0.431,-0.714 0.456,-0.709C0.491,-0.703 0.521,-0.692 0.544,-0.676C0.568,-0.659 0.587,-0.636 0.602,-0.606C0.616,-0.577 0.624,-0.544 0.624,-0.509C0.624,-0.448 0.604,-0.396 0.565,-0.354C0.527,-0.312 0.457,-0.291 0.355,-0.291L0.172,-0.291L0.172,-0L0.077,-0ZM0.172,-0.375L0.357,-0.375C0.418,-0.375 0.462,-0.387 0.487,-0.41C0.513,-0.432 0.526,-0.465 0.526,-0.506C0.526,-0.536 0.518,-0.561 0.503,-0.583C0.488,-0.604 0.468,-0.618 0.443,-0.625C0.427,-0.629 0.398,-0.631 0.355,-0.631L0.172,-0.631L0.172,-0.375Z" style="fill:rgb(207,174,117);fill-rule:nonzero;"/>
        </g>
        <g transform="matrix(125,0,0,125,2990.255016,1638.392155)">
            <path d="M0.074,-0L0.074,-0.716L0.217,-0.716L0.386,-0.209C0.402,-0.162 0.413,-0.126 0.42,-0.103C0.429,-0.129 0.441,-0.167 0.458,-0.218L0.63,-0.716L0.757,-0.716L0.757,-0L0.666,-0L0.666,-0.599L0.458,-0L0.373,-0L0.166,-0.609L0.166,-0L0.074,-0Z" style="fill:rgb(207,174,117);fill-rule:nonzero;"/>
        </g>
        <g transform="matrix(125,0,0,125,3094.380993,1638.392155)">
            <path d="M0.079,-0L0.079,-0.716L0.597,-0.716L0.597,-0.631L0.174,-0.631L0.174,-0.412L0.57,-0.412L0.57,-0.328L0.174,-0.328L0.174,-0.084L0.613,-0.084L0.613,-0L0.079,-0Z" style="fill:rgb(207,174,117);fill-rule:nonzero;"/>
        </g>
        <g transform="matrix(125,0,0,125,3177.755016,1638.392155)">
            <path d="M0.076,-0L0.076,-0.716L0.173,-0.716L0.549,-0.154L0.549,-0.716L0.64,-0.716L0.64,-0L0.543,-0L0.167,-0.562L0.167,-0L0.076,-0Z" style="fill:rgb(207,174,117);fill-rule:nonzero;"/>
        </g>
        <g transform="matrix(125,0,0,125,3268.026012,1638.392155)">
            <path d="M0.259,-0L0.259,-0.631L0.023,-0.631L0.023,-0.716L0.591,-0.716L0.591,-0.631L0.354,-0.631L0.354,-0L0.259,-0Z" style="fill:rgb(207,174,117);fill-rule:nonzero;"/>
        </g>
    </g>
</svg>
